<?xml version="1.0" standalone="no"?>
<!DOCTYPE svg PUBLIC "-//W3C//DTD SVG 20010904//EN"
 "http://www.w3.org/TR/2001/REC-SVG-20010904/DTD/svg10.dtd">
<svg version="1.0" xmlns="http://www.w3.org/2000/svg"
 width="1077.000000pt" height="1077.000000pt" viewBox="0 0 1077.000000 1077.000000"
 preserveAspectRatio="xMidYMid meet">
<metadata>
Created by potrace 1.14, written by Peter Selinger 2001-2017
</metadata>
<g transform="translate(0.000000,1077.000000) scale(0.100000,-0.100000)"
fill="#000000" stroke="none">
<path d="M5530 8592 c-5 -2 -7 -9 -3 -15 4 -7 0 -8 -12 -4 -9 4 -24 2 -31 -4
-8 -6 -14 -7 -14 -2 0 5 -18 9 -40 9 -22 0 -40 -3 -40 -8 0 -4 -7 -8 -15 -8
-8 0 -15 -6 -15 -12 0 -8 -3 -9 -8 -3 -9 13 -64 17 -57 5 3 -6 -1 -7 -9 -4 -9
3 -16 1 -16 -6 0 -6 -4 -8 -10 -5 -5 3 -10 1 -10 -6 0 -8 -4 -8 -15 1 -11 9
-15 9 -15 1 0 -7 -5 -9 -11 -6 -6 4 -24 8 -40 9 -23 2 -28 -1 -24 -13 3 -9 3
-12 -1 -8 -4 4 -13 2 -20 -4 -8 -7 -14 -7 -19 1 -4 7 -12 7 -24 0 -10 -5 -22
-6 -26 -2 -5 4 -5 1 -1 -5 4 -8 2 -13 -5 -13 -9 0 -9 -3 1 -14 10 -13 7 -14
-14 -10 -17 3 -25 0 -24 -8 4 -15 -24 -18 -34 -3 -5 6 -12 5 -20 -4 -11 -11
-11 -13 1 -6 9 5 12 4 7 -3 -4 -6 -13 -9 -20 -6 -7 3 -16 -2 -20 -11 -3 -9
-10 -14 -15 -10 -5 3 -12 1 -16 -5 -3 -5 -17 -10 -31 -10 -14 0 -27 -7 -30
-15 -4 -8 -12 -15 -19 -15 -8 0 -17 -5 -21 -12 -4 -7 -3 -8 4 -4 7 4 12 5 12
2 0 -2 -14 -11 -30 -20 -20 -9 -28 -10 -24 -3 3 7 -1 4 -9 -5 -8 -10 -17 -15
-20 -11 -4 3 -7 1 -7 -5 0 -7 -7 -12 -15 -12 -9 0 -18 -7 -21 -15 -4 -9 -11
-15 -18 -14 -21 3 -35 -1 -48 -13 -7 -7 -22 -20 -32 -28 -18 -13 -19 -13 -12
0 4 8 0 6 -8 -4 -9 -11 -16 -25 -16 -31 0 -13 -40 -49 -61 -53 -8 -2 -16 -8
-17 -13 -2 -5 -8 -7 -13 -3 -5 3 -9 2 -8 -3 5 -27 -2 -45 -15 -40 -10 4 -13 1
-10 -7 6 -15 -34 -48 -48 -40 -4 3 -8 0 -8 -6 0 -6 -4 -8 -10 -5 -6 3 -7 -1
-4 -9 3 -9 2 -16 -4 -16 -6 0 -13 6 -15 13 -4 9 -6 9 -6 -1 -1 -7 -6 -10 -13
-6 -7 4 -8 3 -4 -5 4 -6 11 -9 16 -6 5 3 11 1 15 -5 3 -5 1 -10 -5 -10 -6 0
-8 -5 -4 -12 4 -7 3 -8 -5 -4 -6 4 -14 0 -17 -8 -3 -9 -10 -13 -15 -10 -13 7
-7 -19 6 -28 6 -5 3 -8 -7 -9 -31 -3 -34 -4 -51 -21 -21 -21 -21 -28 -2 -28 8
0 15 -5 15 -11 0 -5 -4 -7 -10 -4 -5 3 -15 -5 -21 -19 -7 -14 -16 -23 -20 -20
-5 3 -6 -2 -3 -10 4 -9 1 -16 -6 -16 -7 0 -10 -7 -6 -15 3 -8 2 -14 -2 -14
-29 5 -58 -31 -65 -80 -2 -11 -7 -24 -12 -28 -4 -5 -5 -2 -1 5 4 6 5 12 2 12
-3 0 -12 -13 -21 -30 -14 -27 -14 -30 0 -30 13 0 14 -2 3 -14 -11 -12 -14 -12
-21 0 -5 8 -12 12 -18 9 -5 -4 -9 -1 -9 5 0 6 -5 8 -11 4 -8 -4 -7 -9 2 -15 7
-4 17 -5 21 -3 4 3 8 1 8 -5 0 -5 -5 -13 -10 -16 -8 -5 -7 -11 1 -21 6 -8 10
-14 8 -15 -2 0 -13 -3 -24 -5 -11 -3 -26 -6 -32 -6 -7 -1 -13 -4 -13 -8 0 -9
-29 -6 -53 4 -9 5 -25 6 -35 4 -10 -3 -23 1 -30 9 -8 8 -37 13 -82 13 -39 0
-70 4 -70 9 0 5 -13 11 -30 13 -16 3 -30 2 -30 -2 0 -4 -20 -4 -45 0 -30 5
-45 3 -45 -4 0 -6 -5 -4 -10 4 -6 9 -10 10 -10 3 0 -8 -9 -9 -30 -3 -17 5 -32
5 -35 0 -3 -5 -16 -5 -30 0 -14 5 -27 5 -30 0 -3 -5 -18 -5 -35 0 -18 5 -30 5
-30 -1 0 -5 -3 -8 -7 -8 -18 3 -34 -2 -30 -8 3 -5 -24 -8 -59 -7 -42 1 -64 -3
-64 -10 0 -7 -17 -11 -45 -10 -28 1 -45 -3 -45 -10 0 -6 -5 -4 -10 4 -8 13
-10 12 -10 -3 0 -13 -6 -16 -27 -13 -15 3 -34 0 -42 -7 -12 -10 -13 -9 -7 3 4
8 1 7 -8 -4 -8 -10 -19 -15 -25 -12 -5 4 -12 2 -16 -4 -4 -6 -11 -8 -16 -5 -5
4 -9 -1 -9 -11 0 -12 -4 -14 -12 -7 -16 12 -48 13 -48 1 0 -4 -7 -8 -15 -8 -8
0 -15 -5 -15 -11 0 -5 -5 -7 -10 -4 -6 4 -7 11 -4 17 4 6 2 8 -4 5 -5 -4 -8
-16 -5 -27 4 -15 1 -18 -16 -15 -13 2 -21 -1 -21 -10 0 -8 -8 -12 -19 -10 -11
2 -22 -2 -24 -10 -4 -8 -19 -12 -41 -10 -20 1 -37 -2 -37 -7 -1 -4 -2 -14 -3
-20 0 -7 -14 -14 -31 -15 -16 -1 -35 -9 -41 -17 -8 -12 -13 -13 -22 -4 -9 9
-12 9 -12 0 0 -7 -27 -39 -60 -72 -33 -33 -60 -57 -60 -54 0 2 -9 0 -21 -6
-17 -10 -18 -14 -7 -28 7 -9 8 -13 2 -9 -6 4 -23 -7 -36 -24 -14 -16 -29 -29
-34 -27 -11 3 -54 -24 -54 -34 0 -10 -36 -47 -71 -73 -14 -11 -26 -24 -27 -29
0 -5 -5 -12 -12 -16 -6 -4 -12 -13 -13 -21 -3 -18 -49 -65 -60 -61 -5 1 -6
-11 -4 -27 4 -23 0 -34 -19 -48 -13 -10 -22 -24 -19 -31 2 -7 -2 -15 -10 -18
-8 -4 -15 -14 -15 -23 -1 -21 -24 -51 -39 -51 -7 0 -9 -5 -6 -11 4 -5 -1 -19
-10 -29 -11 -12 -14 -26 -10 -39 5 -15 2 -21 -10 -21 -9 0 -13 -5 -10 -11 4
-6 -2 -13 -14 -16 -17 -4 -19 -8 -10 -19 9 -11 8 -14 -2 -14 -11 0 -11 -2 1
-10 12 -8 11 -14 -8 -40 -13 -17 -20 -36 -16 -42 4 -6 3 -8 -4 -4 -6 3 -13 2
-17 -4 -3 -5 0 -10 7 -10 9 0 9 -3 -2 -10 -8 -5 -10 -10 -3 -10 6 0 9 -9 6
-21 -4 -16 -8 -17 -14 -7 -7 10 -9 10 -10 -2 0 -8 -2 -27 -4 -43 -2 -16 0 -25
6 -21 15 9 6 -19 -10 -32 -8 -6 -14 -34 -15 -70 -1 -33 -6 -66 -12 -74 -14
-22 -14 -171 0 -163 7 4 6 1 -1 -8 -14 -18 -14 -58 1 -78 8 -11 8 -13 -2 -7
-14 8 -12 -19 2 -43 6 -9 5 -12 -1 -8 -7 4 -11 -10 -11 -38 -1 -29 3 -45 11
-45 9 0 9 -2 1 -8 -7 -4 -11 -26 -10 -50 2 -40 0 -44 -26 -49 -15 -3 -26 -8
-24 -12 3 -4 -19 -6 -47 -5 -29 1 -58 -4 -66 -10 -11 -8 -13 -8 -8 1 9 15 -61
12 -71 -3 -4 -6 -18 -10 -30 -9 -13 1 -26 -3 -28 -10 -3 -6 -19 -11 -37 -10
-18 1 -39 -5 -48 -12 -9 -8 -28 -12 -43 -9 -14 3 -25 0 -23 -6 1 -5 -8 -14
-20 -19 -15 -5 -23 -5 -23 3 0 7 -4 7 -14 -1 -11 -9 -15 -9 -18 0 -3 9 -11 6
-26 -9 -12 -12 -22 -19 -22 -16 0 3 -7 -2 -16 -11 -9 -9 -23 -14 -31 -11 -8 3
-11 1 -8 -4 6 -9 -2 -12 -22 -9 -3 0 -10 -6 -15 -15 -6 -10 -19 -14 -38 -12
-17 2 -30 -1 -30 -6 0 -17 -63 -66 -77 -61 -8 3 -29 -7 -46 -23 -39 -36 -92
-66 -101 -57 -3 3 -6 0 -6 -8 0 -11 -2 -11 -10 1 -8 12 -10 11 -10 -5 0 -12 4
-25 9 -30 6 -6 1 -10 -14 -10 -12 0 -21 3 -18 8 2 4 -1 7 -7 7 -6 0 -8 6 -4
13 4 6 -2 4 -12 -6 -18 -17 -18 -19 -1 -31 21 -16 22 -26 3 -26 -8 0 -35 -21
-60 -47 -25 -25 -49 -44 -52 -40 -9 9 -32 -16 -27 -30 3 -7 -2 -15 -10 -19 -9
-3 -13 -12 -10 -20 3 -8 0 -14 -5 -14 -6 0 -14 -9 -17 -21 -4 -11 -9 -18 -12
-15 -3 2 -16 -7 -30 -22 -14 -15 -20 -19 -13 -9 11 15 10 17 -4 11 -9 -3 -16
-1 -16 6 0 6 -4 8 -10 5 -6 -3 -1 -15 11 -28 l20 -22 -33 -30 c-18 -16 -32
-33 -31 -37 2 -4 -2 -8 -8 -8 -5 0 -7 -5 -4 -10 3 -6 -6 -15 -21 -20 -20 -8
-25 -15 -22 -34 3 -15 -2 -28 -13 -37 -11 -7 -15 -17 -10 -23 9 -12 -12 -58
-25 -56 -5 0 -10 -8 -12 -20 -2 -11 -8 -20 -13 -20 -5 0 -9 -7 -9 -16 0 -20
-25 -45 -35 -36 -4 4 0 -6 11 -23 10 -16 14 -27 9 -23 -11 10 -38 -29 -30 -42
3 -6 -1 -10 -10 -10 -12 0 -15 -6 -10 -21 4 -13 3 -19 -2 -16 -5 4 -10 0 -10
-8 0 -8 3 -15 7 -15 3 0 6 -11 6 -24 0 -14 -3 -23 -6 -21 -3 2 -11 -5 -18 -16
-7 -10 -8 -19 -3 -19 11 0 3 -34 -15 -69 -9 -18 -10 -27 -3 -32 7 -4 8 -9 1
-13 -5 -3 -7 -18 -4 -32 3 -18 1 -25 -6 -20 -6 3 -13 2 -17 -4 -3 -5 0 -10 7
-10 8 0 9 -3 3 -8 -12 -8 -13 -41 -3 -58 4 -6 4 -14 0 -18 -10 -11 -9 -30 3
-38 7 -5 6 -8 -1 -8 -12 0 -12 -49 0 -68 3 -6 2 -13 -4 -17 -7 -4 -7 -12 0
-26 6 -10 7 -19 2 -19 -5 0 -9 -7 -9 -15 0 -8 5 -15 11 -15 8 0 8 -3 0 -8 -13
-9 -13 -55 0 -64 8 -5 8 -8 0 -8 -11 0 -12 -49 -1 -67 4 -6 3 -14 -2 -18 -12
-7 4 -56 22 -67 7 -4 7 -8 2 -8 -12 0 -13 -40 -2 -57 4 -7 3 -14 -2 -18 -14
-8 -1 -37 14 -31 13 4 13 -33 0 -53 -3 -6 -1 -11 5 -11 6 0 8 -4 5 -10 -3 -5
-2 -10 3 -10 17 0 21 -39 4 -42 -13 -2 -10 -9 11 -32 15 -16 24 -32 21 -37 -8
-14 -16 -10 -8 4 5 9 4 9 -7 -1 -11 -10 -10 -16 11 -35 14 -12 26 -29 28 -37
2 -8 8 -16 13 -18 5 -2 9 -12 9 -23 0 -10 4 -19 10 -19 5 0 9 -10 8 -23 -1
-13 10 -39 25 -58 15 -20 24 -39 19 -44 -4 -5 -2 -5 4 -2 7 4 18 -1 25 -10 8
-10 9 -14 2 -10 -6 4 -14 3 -18 -3 -3 -5 -1 -10 5 -10 6 0 8 -4 5 -10 -7 -11
40 -62 49 -53 3 4 6 1 6 -6 0 -6 9 -21 20 -33 10 -12 17 -24 15 -28 -3 -4 7
-15 20 -24 14 -9 23 -21 19 -27 -3 -6 19 -34 50 -64 56 -53 69 -81 41 -91 -8
-4 -12 -11 -8 -17 4 -6 10 -5 17 4 15 20 37 22 30 4 -4 -10 -2 -13 8 -10 10 4
37 -16 74 -52 32 -32 63 -57 69 -55 5 2 7 1 3 -3 -9 -9 20 -39 41 -42 8 -1 17
-7 19 -13 2 -5 8 -8 13 -4 5 3 9 -1 9 -9 0 -8 7 -18 16 -21 10 -4 13 -2 9 7
-4 6 9 -5 28 -25 19 -21 37 -34 41 -31 3 3 6 1 6 -5 0 -6 12 -10 28 -9 17 1
26 -2 24 -11 -1 -7 3 -12 10 -11 26 3 39 -1 33 -11 -4 -6 -3 -10 2 -9 30 5 45
-2 40 -21 -4 -15 0 -20 13 -20 11 0 22 -5 25 -10 5 -8 11 -7 21 1 10 8 14 8
14 1 0 -6 7 -9 15 -6 9 4 15 0 15 -10 0 -19 11 -21 28 -4 9 9 12 9 12 0 0 -7
7 -12 16 -12 8 0 12 -5 9 -10 -6 -10 15 -15 44 -10 8 1 18 -4 22 -12 7 -10 9
-10 9 0 0 16 29 15 36 -2 3 -9 18 -13 45 -11 29 2 39 -1 39 -12 0 -8 4 -11 10
-8 5 3 10 1 10 -5 0 -6 5 -8 13 -3 20 12 37 12 37 0 0 -8 3 -8 8 -2 8 11 15
11 49 0 13 -4 20 -11 17 -16 -3 -5 5 -5 19 0 13 5 30 5 37 1 8 -5 19 -5 25 -1
11 8 18 7 53 -4 12 -4 22 -12 22 -19 0 -6 5 -4 10 4 6 9 10 10 10 3 0 -12 30
-10 50 2 6 3 10 2 10 -3 0 -9 71 -8 95 2 7 2 18 0 26 -4 8 -5 19 -4 26 2 8 6
13 7 13 1 0 -6 20 -8 48 -6 26 3 52 4 57 4 6 0 27 -2 47 -4 20 -2 35 0 32 5
-3 4 0 8 5 8 6 0 11 -4 11 -8 0 -10 51 -9 67 1 6 4 14 3 18 -2 3 -7 15 -7 29
-1 13 5 26 6 30 3 9 -9 85 -10 80 -1 -3 4 0 8 5 8 6 0 11 -4 11 -8 0 -10 51
-9 67 1 6 4 14 3 18 -2 3 -7 15 -7 29 -1 13 5 26 6 30 3 9 -9 85 -10 80 -1 -3
4 0 8 5 8 6 0 11 -4 11 -8 0 -10 51 -9 67 1 6 4 15 3 18 -3 5 -8 11 -7 21 1 8
6 14 7 14 2 0 -10 70 -9 95 1 7 2 18 0 26 -4 8 -5 19 -4 26 2 8 6 13 7 13 1 0
-6 20 -8 48 -6 26 3 54 4 62 4 8 -1 24 -1 35 -1 25 1 30 1 82 -3 23 -2 39 1
37 5 -3 4 0 8 5 8 6 0 11 -4 11 -8 0 -10 51 -9 67 1 6 4 14 3 18 -2 3 -6 15
-7 29 -1 12 4 29 5 36 0 7 -4 25 -4 41 0 15 5 30 6 33 3 9 -9 85 -10 80 -1 -3
4 0 8 5 8 6 0 11 -4 11 -8 0 -10 51 -9 67 1 6 4 14 3 18 -2 3 -7 15 -7 29 -1
13 5 26 6 30 3 9 -9 85 -10 80 -1 -3 4 0 8 5 8 6 0 11 -4 11 -8 0 -10 51 -9
67 1 6 4 14 3 18 -2 3 -7 15 -7 29 -1 13 5 26 6 30 3 9 -9 85 -10 80 -1 -3 4
0 8 5 8 6 0 11 -4 11 -8 0 -10 51 -9 67 1 6 4 14 3 18 -2 3 -7 15 -7 29 -1 13
5 26 6 30 3 9 -9 85 -10 80 -1 -3 4 0 8 5 8 6 0 11 -4 11 -8 0 -9 51 -9 66 1
6 3 14 3 18 0 10 -10 66 -11 60 -1 -3 4 0 8 5 8 6 0 11 -4 11 -8 0 -10 51 -9
67 1 6 4 14 3 18 -2 3 -7 15 -7 29 -1 13 5 26 6 30 3 9 -9 85 -10 80 -1 -3 4
0 8 5 8 6 0 11 -4 11 -8 0 -10 51 -9 67 1 6 4 14 3 18 -2 3 -7 15 -7 29 -1 13
5 26 6 29 3 10 -9 77 -10 77 -1 0 10 23 6 31 -5 3 -5 22 7 42 26 19 20 39 32
43 29 4 -4 -2 7 -12 23 -14 23 -15 27 -3 17 14 -11 16 -9 11 13 -2 14 -9 25
-15 25 -6 0 -2 7 9 16 10 8 13 12 5 9 -10 -6 -9 -1 2 16 9 13 17 28 19 34 2 5
7 9 12 7 5 -2 6 4 2 13 -3 9 -6 19 -6 21 0 3 -6 2 -12 -2 -8 -5 -7 0 2 11 8
10 10 16 4 12 -7 -4 -15 0 -18 9 -3 8 -2 13 3 10 5 -3 12 1 15 10 3 8 11 12
16 9 13 -8 8 17 -5 27 -6 5 -4 12 5 18 12 8 13 12 1 19 -10 7 -11 13 -2 30 7
12 8 27 4 34 -10 16 -13 38 -5 33 4 -2 13 2 20 10 10 11 10 14 0 14 -9 0 -9 3
2 10 8 5 10 10 4 10 -6 0 -11 7 -11 15 0 8 4 12 9 9 12 -8 10 10 -4 24 -9 9
-9 12 1 12 11 0 11 3 0 18 -7 9 -10 14 -5 10 5 -4 16 0 25 9 11 12 13 17 3 21
-6 2 -12 8 -12 13 0 6 4 8 8 5 5 -3 7 5 6 17 -1 12 -3 22 -4 22 -2 0 -4 10 -5
22 -1 12 2 20 6 17 5 -3 9 1 9 10 0 8 -6 17 -12 19 -10 4 -10 6 0 6 6 1 12 8
12 17 0 8 5 12 11 8 7 -4 6 2 -2 17 -12 23 -11 23 6 9 17 -14 17 -13 8 5 -6
11 -8 26 -6 33 3 7 0 19 -6 26 -8 10 -8 16 3 25 17 14 40 75 26 66 -11 -7 -9
23 3 42 4 6 2 15 -4 19 -8 5 -9 3 -4 -6 5 -9 4 -11 -4 -6 -9 6 -9 11 0 22 6 7
9 21 5 29 -3 9 -2 14 2 12 4 -3 13 1 19 9 10 10 10 15 -5 23 -16 10 -16 10 2
11 19 0 19 0 0 22 -10 12 -13 18 -6 14 7 -4 12 -1 12 9 0 10 -5 13 -12 9 -10
-6 -10 -5 -1 8 7 8 10 18 6 21 -3 4 -1 7 5 7 7 0 12 9 12 21 0 13 4 18 12 13
7 -5 8 -3 2 7 -11 17 -11 36 -2 72 5 19 3 25 -4 21 -8 -5 -9 -1 -5 10 4 10 7
24 7 31 0 8 9 17 21 20 19 7 20 7 2 21 -14 11 -15 14 -3 14 10 1 9 4 -5 10
-13 6 -15 9 -5 9 16 1 20 57 6 79 -4 7 -1 12 9 12 10 0 13 5 9 12 -5 7 -2 9 9
5 11 -4 14 -2 10 8 -3 8 -9 12 -14 9 -13 -7 -7 19 6 28 6 5 4 8 -5 8 -12 0
-12 2 -1 9 10 7 11 13 2 30 -10 18 -9 20 5 14 11 -4 15 -2 11 4 -4 6 -1 14 5
17 10 5 10 7 1 12 -7 3 -13 10 -13 15 0 6 5 7 10 4 6 -3 10 -1 10 4 0 6 -6 11
-12 11 -10 0 -9 3 1 9 10 7 11 13 2 30 -8 15 -9 21 -1 21 6 0 8 5 4 11 -4 7 4
20 17 31 13 11 18 17 10 13 -10 -6 -11 -2 -6 15 6 17 4 21 -6 15 -8 -5 -5 2 6
15 11 13 14 20 6 15 -11 -6 -13 -4 -8 7 3 9 0 21 -6 28 -9 9 -9 11 -1 7 7 -4
15 0 18 9 3 8 2 12 -4 9 -15 -9 -12 14 4 30 7 8 17 11 22 7 5 -4 0 4 -11 17
-11 14 -15 21 -9 18 7 -4 15 0 18 9 5 12 2 15 -11 10 -15 -5 -15 -4 1 9 11 8
14 15 8 15 -16 0 -15 12 4 36 14 18 15 18 4 -6 -10 -24 -10 -24 4 -6 10 13 12
23 6 31 -6 7 -6 15 0 21 14 14 -25 53 -60 61 -16 3 -29 8 -28 12 2 21 -3 51
-9 50 -26 -4 -43 2 -37 14 6 9 4 9 -7 0 -7 -7 -17 -13 -22 -13 -4 0 -5 6 -1
13 5 8 2 8 -9 -2 -15 -12 -17 -11 -17 3 0 9 -5 16 -11 16 -5 0 -7 4 -4 10 4 6
-1 7 -11 3 -12 -4 -15 -3 -10 5 4 7 0 15 -9 18 -12 5 -13 9 -4 20 9 11 9 14 0
14 -7 0 -10 4 -7 9 4 5 1 11 -6 13 -6 2 -12 12 -14 21 -1 9 1 15 5 13 4 -3 7
4 7 14 0 10 -4 16 -8 14 -13 -8 -9 11 5 25 10 11 9 12 -3 6 -13 -8 -13 -6 -2
7 10 12 10 17 1 20 -9 3 -9 9 -1 24 7 14 7 25 0 38 -9 15 -8 18 4 14 8 -4 15
-1 16 5 1 16 31 94 32 83 0 -5 12 4 27 20 15 16 26 35 24 43 -2 10 2 10 14 -3
20 -20 39 -21 32 -2 -8 21 15 26 36 8 16 -15 17 -14 11 3 -6 14 -4 17 9 12 11
-4 14 -2 10 9 -3 7 -1 14 3 15 53 5 74 4 74 -5 0 -6 4 -5 9 2 4 8 12 14 16 14
4 0 12 -6 16 -14 8 -11 10 -11 18 0 7 11 9 11 14 -2 4 -9 14 -13 27 -11 11 2
20 0 20 -6 0 -5 7 -9 15 -9 9 0 12 -6 9 -15 -6 -13 6 -20 29 -16 4 0 7 -6 7
-14 0 -8 6 -15 13 -15 8 0 7 -4 -3 -11 -12 -9 -11 -10 8 -6 12 3 22 1 22 -5 0
-5 5 -6 10 -3 6 3 10 -1 10 -9 0 -9 6 -16 13 -16 8 0 7 -4 -3 -10 -13 -9 -13
-11 0 -20 11 -7 11 -10 2 -10 -10 0 -10 -3 0 -14 9 -10 15 -11 20 -2 5 7 8 4
8 -7 0 -10 4 -16 8 -13 5 3 9 -1 9 -9 0 -8 -4 -12 -8 -10 -3 3 -12 -2 -18 -9
-8 -10 -9 -16 -1 -21 6 -3 8 -11 5 -16 -4 -5 1 -9 10 -9 17 0 17 -30 0 -42 -6
-5 -5 -8 2 -8 7 0 10 -7 7 -15 -4 -8 -10 -13 -14 -10 -5 3 -11 1 -15 -5 -3 -5
-2 -10 3 -10 5 0 9 -6 9 -14 0 -8 -6 -12 -13 -9 -6 2 -15 -1 -19 -6 -3 -6 -10
-9 -14 -7 -4 3 -8 -1 -8 -9 0 -8 5 -15 11 -15 6 0 2 -7 -8 -15 -11 -8 -17 -15
-13 -15 5 0 2 -6 -5 -14 -7 -8 -16 -12 -20 -9 -13 7 -9 -12 4 -25 15 -15 3
-15 -25 0 -19 10 -20 9 -9 -4 10 -13 10 -16 0 -14 -7 0 -14 -3 -15 -8 -3 -16
-27 -25 -40 -14 -10 8 -19 6 -36 -11 -13 -11 -27 -21 -31 -21 -4 0 -14 -7 -22
-15 -12 -12 -12 -15 -2 -15 8 0 9 -3 3 -8 -5 -4 -11 -14 -13 -22 -2 -8 -1 -12
3 -8 4 4 13 1 20 -5 10 -9 10 -15 1 -26 -8 -12 -8 -13 2 -7 15 9 16 -6 0 -22
-9 -9 -9 -12 0 -12 7 0 11 -6 9 -12 -1 -7 4 -12 11 -11 6 2 12 -1 12 -6 0 -5
-6 -12 -12 -14 -10 -4 -10 -6 0 -6 6 -1 12 -10 12 -21 0 -11 -6 -20 -12 -20
-8 0 -9 -3 -3 -8 13 -9 19 -46 7 -38 -11 7 -10 -13 1 -31 4 -6 3 -15 -3 -18
-8 -5 -7 -11 1 -21 6 -7 15 -11 20 -8 5 3 9 -4 9 -16 0 -14 -4 -19 -12 -14 -9
5 -9 2 1 -9 7 -9 11 -17 8 -17 -3 0 -2 -13 3 -30 7 -23 5 -32 -8 -40 -9 -5
-12 -10 -6 -10 13 0 15 -31 2 -47 -6 -7 -4 -14 3 -19 8 -5 9 -3 4 6 -5 8 -4
11 2 7 6 -4 8 -18 5 -32 -3 -19 0 -25 14 -26 11 0 14 -3 8 -5 -14 -6 -9 -65 6
-74 7 -4 10 -14 8 -21 -3 -8 -1 -22 4 -33 7 -13 7 -16 -1 -12 -6 4 -11 2 -11
-3 0 -10 14 -15 32 -12 4 0 5 -5 3 -12 -14 -38 -13 -98 1 -112 12 -12 13 -15
2 -15 -16 0 -17 -42 -1 -62 16 -21 23 -48 12 -48 -6 0 -3 -7 5 -16 9 -8 16
-24 16 -35 0 -14 4 -18 13 -13 8 5 7 2 -2 -9 -11 -14 -12 -23 -2 -44 11 -23
10 -25 -3 -14 -12 10 -14 9 -9 -8 3 -12 10 -21 17 -21 6 0 4 -5 -6 -10 -18
-11 -14 -50 6 -50 6 0 4 -5 -4 -11 -11 -8 -12 -12 -2 -16 6 -2 9 -10 5 -16 -4
-6 -1 -8 8 -5 10 4 15 -1 15 -12 0 -10 -4 -16 -9 -13 -5 3 -6 -4 -2 -17 5 -17
4 -21 -5 -15 -9 5 -11 4 -6 -4 4 -6 11 -9 16 -6 13 8 19 -22 7 -34 -9 -9 -7
-11 8 -6 14 5 13 2 -5 -9 -14 -8 -20 -16 -15 -16 6 0 3 -5 -5 -10 -10 -7 -11
-10 -2 -11 27 -3 31 -4 39 -13 5 -6 2 -6 -6 -1 -11 6 -13 4 -8 -7 3 -9 0 -21
-6 -27 -9 -9 -8 -10 7 -5 15 6 17 4 11 -6 -5 -8 -1 -18 11 -28 17 -13 17 -14
1 -8 -11 3 -16 2 -12 -5 4 -6 -1 -17 -11 -25 -14 -10 -15 -13 -3 -9 10 4 16 0
16 -9 0 -8 -4 -13 -9 -10 -4 3 -8 -2 -8 -11 0 -10 5 -13 13 -9 7 5 6 0 -3 -11
-12 -14 -12 -19 -2 -23 10 -3 10 -7 1 -19 -10 -12 -10 -16 2 -24 8 -5 9 -9 4
-9 -6 0 -11 -9 -12 -20 -1 -11 2 -18 8 -15 5 4 9 -1 9 -9 0 -10 6 -13 17 -9
10 4 14 2 10 -4 -4 -6 1 -14 10 -17 15 -6 14 -10 -9 -30 -26 -22 -26 -23 -7
-36 19 -15 28 -36 9 -25 -18 11 -6 -18 15 -38 11 -10 13 -15 5 -11 -12 5 -13
4 -3 -6 8 -9 9 -19 2 -32 -7 -14 -6 -18 5 -18 8 0 18 -5 22 -12 4 -7 3 -8 -4
-4 -7 4 -12 2 -12 -3 0 -6 4 -11 9 -11 11 0 9 -49 -2 -67 -4 -6 -3 -14 1 -17
10 -6 10 -52 -1 -62 -11 -12 -8 -24 7 -24 14 0 26 -21 26 -47 0 -9 -6 -13 -15
-10 -8 4 -17 2 -19 -2 -10 -16 31 -6 49 13 18 18 19 18 26 0 4 -11 8 -13 8 -7
1 9 8 10 27 3 18 -7 23 -7 18 2 -5 7 -3 8 6 3 17 -10 90 -13 84 -3 -3 4 0 8 5
8 6 0 11 -4 11 -8 0 -10 51 -9 67 1 6 4 15 3 18 -3 5 -8 11 -7 21 1 8 6 14 7
14 2 0 -10 70 -9 95 1 7 2 18 0 26 -4 8 -5 19 -4 26 2 8 6 13 7 13 1 0 -10 70
-9 95 1 7 2 18 0 26 -4 8 -5 19 -4 26 2 8 6 13 7 13 1 0 -10 70 -9 95 1 7 2
18 0 26 -4 8 -5 19 -4 26 2 8 6 13 7 13 1 0 -6 20 -8 48 -6 26 3 52 4 57 4 6
0 27 -2 47 -4 20 -2 35 0 32 5 -3 4 0 8 5 8 6 0 11 -4 11 -8 0 -10 51 -9 67 1
6 4 14 3 18 -2 3 -7 15 -7 29 -1 13 5 26 6 30 3 9 -9 85 -10 80 -1 -3 4 0 8 5
8 6 0 11 -4 11 -8 0 -10 51 -9 67 1 6 4 14 3 18 -2 3 -7 15 -7 29 -1 13 5 26
6 30 3 9 -9 85 -10 80 -1 -3 4 0 8 5 8 6 0 11 -4 11 -8 0 -10 51 -9 67 1 6 4
15 3 18 -3 5 -8 11 -7 21 1 8 6 14 7 14 2 0 -10 70 -9 95 1 7 2 18 0 26 -4 8
-5 19 -4 26 2 8 6 13 7 13 1 0 -6 20 -8 48 -6 26 3 52 4 57 4 6 0 27 -2 47 -4
20 -2 35 0 32 5 -3 4 0 8 5 8 6 0 11 -4 11 -8 0 -10 51 -9 67 1 6 4 14 3 18
-2 3 -7 15 -7 29 -1 13 5 26 6 30 3 9 -9 85 -10 80 -1 -3 4 0 8 5 8 6 0 11 -4
11 -8 0 -10 51 -9 67 1 6 4 14 3 18 -2 3 -7 15 -7 29 -1 13 5 26 6 30 3 9 -9
85 -10 80 -1 -3 4 0 8 5 8 6 0 11 -4 11 -8 0 -9 51 -9 66 1 6 3 14 3 18 0 10
-10 66 -11 60 -1 -3 4 0 8 5 8 6 0 11 -4 11 -8 0 -10 51 -9 67 1 6 4 14 3 18
-2 3 -7 15 -7 29 -1 13 5 26 6 30 3 9 -9 85 -10 80 -1 -3 4 0 8 5 8 6 0 11 -4
11 -8 0 -10 51 -9 67 1 6 4 14 3 18 -2 3 -7 15 -7 29 -1 13 5 26 6 30 3 9 -9
85 -10 80 -1 -3 4 0 8 5 8 6 0 11 -4 11 -8 0 -4 9 -8 20 -8 11 0 20 4 20 9 0
4 6 5 13 0 18 -11 37 -12 37 -2 0 6 4 8 9 4 6 -3 14 3 20 12 6 11 11 13 11 5
0 -7 5 -10 12 -6 16 10 78 10 81 0 2 -5 13 -4 25 3 15 8 22 8 22 1 0 -6 5 -8
13 -3 19 12 36 12 43 1 4 -5 16 0 29 12 15 14 25 18 30 10 4 -7 18 -4 43 12
19 12 32 16 27 8 -6 -9 -4 -11 5 -5 8 5 31 8 52 8 21 0 36 4 35 10 -1 7 15 11
38 12 29 0 43 5 52 20 11 18 12 19 18 3 4 -10 11 -15 16 -12 5 3 9 0 9 -6 0
-7 5 -6 14 2 8 7 11 18 8 23 -3 6 2 4 11 -4 12 -9 17 -10 17 -2 0 7 4 9 10 6
5 -3 7 0 4 9 -8 22 6 42 17 25 7 -11 9 -11 9 -1 0 7 5 10 10 7 16 -10 33 5 21
19 -7 8 -4 12 10 13 10 1 26 9 34 17 9 8 23 12 32 9 11 -4 14 -3 9 5 -4 7 -2
13 3 13 6 1 16 2 21 3 6 0 14 6 18 12 4 6 15 10 25 8 9 -1 15 1 13 5 -5 8 55
47 67 43 4 -1 7 2 7 8 0 5 7 10 14 10 8 0 27 11 41 25 25 22 29 23 50 9 20
-13 23 -13 28 0 4 11 1 13 -10 9 -12 -5 -14 -3 -8 7 6 9 4 11 -5 5 -10 -6 -12
-4 -7 9 4 10 7 22 7 27 0 5 4 8 9 7 5 -2 28 16 50 40 22 23 43 43 46 42 21 -1
26 2 23 12 -5 14 100 121 111 114 4 -3 13 4 20 16 10 16 10 19 -1 13 -7 -3 -5
0 5 8 9 8 17 19 17 26 0 6 6 10 13 9 7 -2 11 5 9 16 -3 14 1 18 16 14 10 -3
19 0 20 6 1 6 3 22 4 36 2 14 10 30 18 37 8 7 11 13 5 13 -7 0 -7 3 0 8 16 12
46 73 39 83 -3 5 -1 9 5 9 13 0 42 55 34 64 -4 3 -1 6 6 6 7 0 9 5 6 10 -3 6
-2 10 3 10 5 0 12 9 15 20 3 11 1 20 -4 20 -5 0 3 14 18 31 16 17 27 36 25 41
-1 4 5 11 13 14 8 3 13 10 10 14 -3 5 -1 11 5 15 6 3 7 14 2 23 -11 26 -8 57
7 54 7 -1 10 1 7 6 -2 4 -1 14 4 22 5 8 5 22 -1 32 -7 13 -6 18 3 18 9 0 9 3
1 11 -9 9 -6 17 8 32 14 16 16 23 7 29 -10 6 -10 8 -1 8 9 0 10 7 4 23 -9 24
-4 50 9 42 11 -7 19 30 9 46 -4 7 -3 21 2 31 7 13 6 18 -3 18 -8 0 -9 3 -3 8
15 10 17 32 5 46 -5 7 -6 16 -2 20 10 11 9 30 -3 39 -7 5 -7 9 0 15 14 10 15
62 1 62 -6 0 -5 4 2 9 8 4 14 12 14 16 0 4 -6 12 -14 16 -8 6 -9 12 -3 17 16
11 17 33 3 50 -11 13 -11 14 2 7 13 -8 13 -7 1 8 -7 9 -9 17 -4 17 15 0 9 54
-7 68 -13 12 -13 13 0 6 13 -7 13 -5 2 9 -8 9 -11 21 -7 27 3 5 2 10 -3 10 -5
0 -9 7 -9 15 0 8 4 15 8 15 10 0 -2 44 -15 52 -13 9 -15 39 -2 56 5 7 4 12 -3
12 -6 0 -11 7 -11 15 0 8 -4 15 -9 15 -6 0 -8 10 -6 22 3 12 -3 26 -13 34 -14
11 -15 16 -5 33 8 13 9 22 3 26 -6 4 -8 11 -4 16 3 5 0 8 -7 7 -7 -2 -14 4
-15 12 -3 37 -5 41 -14 35 -6 -3 -9 4 -9 17 2 33 -29 100 -43 92 -7 -4 -8 -3
-4 5 4 6 0 23 -9 38 -12 18 -13 23 -4 18 8 -3 5 1 -6 10 -11 9 -19 25 -17 37
2 11 -1 18 -6 14 -5 -3 -13 5 -16 19 -4 14 -11 25 -16 25 -5 0 -7 8 -6 17 2
10 -6 27 -17 38 -11 11 -16 14 -12 6 6 -10 4 -12 -4 -6 -7 4 -11 18 -9 30 4
16 0 22 -10 21 -19 -3 -63 34 -56 46 3 5 0 7 -7 6 -7 -2 -15 6 -17 16 -5 23
-47 67 -56 59 -3 -4 -6 -1 -6 6 0 16 -26 42 -34 34 -3 -4 -6 -1 -6 6 0 18 -48
62 -69 64 -11 1 -18 4 -15 8 2 4 -5 10 -16 14 -11 3 -20 13 -20 21 0 8 -7 14
-16 14 -8 0 -12 5 -9 10 3 6 1 10 -5 10 -6 0 -9 4 -6 9 8 12 -21 34 -34 26 -5
-3 -10 1 -10 10 0 11 -5 15 -14 12 -8 -3 -24 6 -37 19 -13 14 -29 22 -36 20
-7 -3 -13 2 -13 10 0 9 -6 14 -12 11 -7 -2 -25 5 -40 15 -16 11 -28 16 -28 12
0 -4 -8 3 -19 14 -10 12 -24 22 -30 22 -7 0 -9 5 -5 12 5 7 3 8 -7 2 -23 -14
-39 -13 -39 4 0 8 -3 12 -7 9 -3 -4 -17 0 -30 8 -13 9 -29 15 -36 14 -27 -3
-38 1 -31 14 4 6 4 9 -1 5 -4 -4 -14 -3 -21 3 -8 7 -14 7 -19 0 -4 -7 -14 -3
-27 9 -13 12 -26 16 -31 11 -5 -5 -16 -3 -28 7 -23 19 -49 24 -49 9 0 -8 -4
-7 -9 2 -5 7 -13 11 -19 7 -6 -3 -12 -1 -14 5 -2 6 -25 12 -50 14 -26 1 -53 6
-60 12 -7 6 -39 10 -71 9 -36 -1 -57 3 -57 10 0 8 -21 11 -60 10 -70 -2 -109
9 -92 26 8 8 8 17 1 30 -7 13 -6 18 3 18 10 0 10 2 1 8 -8 5 -9 13 -3 22 5 8
5 21 -1 32 -7 13 -6 18 3 18 9 0 9 3 -2 10 -12 8 -13 11 -1 19 9 6 10 11 2 15
-6 4 -9 12 -6 17 4 5 -1 9 -9 9 -10 0 -13 6 -10 15 3 8 0 17 -8 20 -16 6 -20
35 -6 35 5 0 -3 12 -18 27 -25 25 -26 27 -8 40 10 7 12 13 6 13 -7 0 -11 3
-11 8 3 19 -2 33 -10 28 -5 -3 -8 8 -7 24 1 19 -3 30 -11 30 -7 0 -13 5 -13
11 0 5 6 7 13 4 6 -4 3 1 -7 9 -11 9 -14 16 -7 16 7 0 9 5 6 10 -4 6 -11 8
-16 5 -5 -4 -9 8 -9 25 0 21 4 29 12 24 7 -4 8 -3 4 5 -6 9 -11 9 -24 -1 -13
-11 -14 -11 -8 0 5 8 -2 23 -21 39 -15 15 -27 31 -26 35 2 4 -3 8 -10 8 -8 0
-7 3 3 10 12 7 10 13 -12 33 -15 14 -24 28 -20 31 3 4 -2 4 -13 0 -15 -6 -17
-4 -12 9 4 11 1 17 -9 17 -8 0 -19 10 -24 23 -5 12 -9 18 -9 13 -2 -17 -31 17
-31 35 0 13 -7 19 -21 19 -15 0 -19 5 -15 15 3 9 0 15 -10 15 -8 0 -17 7 -21
16 -5 13 -7 13 -14 2 -6 -9 -9 -6 -9 10 0 13 -4 21 -9 18 -4 -3 -7 8 -5 25 2
18 0 28 -6 24 -6 -3 -10 -1 -10 6 0 7 -8 3 -18 -8 -14 -17 -19 -18 -30 -7 -7
8 -12 16 -12 19 0 3 0 8 0 13 0 4 -9 13 -21 20 -17 11 -20 11 -14 0 3 -7 -2
-3 -13 9 -11 12 -23 19 -28 15 -5 -4 -3 0 3 8 17 23 -4 36 -61 37 -34 1 -52 6
-58 17 -7 12 -14 14 -28 6 -13 -7 -19 -6 -24 6 -3 8 -10 13 -15 10 -5 -3 -14
1 -21 9 -7 8 -24 15 -39 15 -15 0 -31 4 -36 9 -6 5 -21 11 -35 13 -14 1 -30 8
-36 13 -6 6 -45 10 -87 9 -42 0 -77 3 -77 8 0 4 -9 8 -20 8 -11 0 -20 6 -20
13 0 7 -3 8 -8 2 -11 -16 -46 -19 -36 -3 6 10 5 10 -7 2 -8 -6 -41 -10 -74 -9
-33 1 -62 -1 -65 -5 -12 -16 -59 -20 -73 -5 -8 8 -18 11 -22 7 -5 -4 -6 3 -3
15 6 21 -13 49 -24 38 -3 -3 -2 15 2 40 4 26 3 48 -4 55 -7 7 -6 10 3 10 7 0
9 5 5 12 -11 18 -10 68 1 68 6 0 3 5 -5 10 -8 5 -10 10 -4 10 17 0 7 63 -13
78 -13 9 -14 12 -2 12 12 0 12 2 -1 10 -8 5 -10 10 -4 10 7 0 9 11 6 25 -2 14
-11 25 -18 25 -17 0 -19 20 -1 21 6 0 3 4 -8 9 -19 8 -19 9 -1 9 15 1 16 4 7
15 -9 11 -9 15 1 19 7 3 4 6 -7 6 -14 1 -21 8 -21 21 0 11 5 20 10 20 5 0 1 8
-10 19 -10 10 -23 16 -29 13 -5 -3 -4 1 3 9 14 16 16 53 2 44 -5 -3 -10 0 -10
9 0 8 -6 17 -12 19 -10 4 -9 6 1 6 11 1 11 4 0 18 -10 11 -10 14 -1 9 6 -4 12
-2 12 3 0 6 -10 11 -22 11 -17 0 -19 3 -10 12 14 14 16 32 2 23 -6 -3 -7 1 -4
9 4 9 1 16 -6 16 -7 0 -10 6 -7 13 3 8 -3 20 -13 27 -15 11 -17 18 -8 33 7 14
7 17 -1 13 -6 -4 -11 -3 -11 2 0 5 -10 13 -22 17 -14 4 -18 8 -10 12 6 2 10 9
6 14 -3 5 0 9 6 9 6 0 8 5 5 10 -4 6 -11 8 -16 5 -5 -4 -17 -1 -26 4 -17 10
-16 10 2 11 11 1 14 4 7 7 -6 2 -10 9 -7 13 3 5 -4 7 -16 5 -17 -3 -19 -2 -9
10 7 8 16 12 21 9 5 -3 8 0 7 8 -2 7 2 12 9 11 7 -2 10 4 6 13 -3 9 -9 12 -12
7 -3 -4 -16 -9 -28 -11 -17 -2 -26 5 -37 30 -8 18 -15 27 -15 19 -1 -10 -7 -7
-20 8 -11 13 -17 29 -14 37 3 8 -1 14 -8 14 -11 0 -11 3 1 10 13 8 12 10 -2
10 -10 0 -18 7 -18 15 0 9 -7 18 -16 22 -12 4 -12 8 -4 13 9 5 6 10 -9 15 -11
3 -21 12 -21 20 0 7 -7 16 -16 19 -10 4 -13 2 -8 -6 4 -7 -7 -1 -25 11 -18 13
-35 30 -38 37 -3 8 -10 11 -16 7 -6 -3 -7 -1 -3 5 4 6 -2 17 -14 24 -11 7 -20
19 -20 27 0 8 -3 12 -6 8 -4 -3 -13 1 -21 9 -14 13 -13 17 3 37 12 14 13 17 3
9 -9 -6 -20 -8 -24 -4 -5 4 -5 2 -1 -5 4 -8 -1 -11 -14 -10 -11 1 -20 7 -20
15 0 7 -5 10 -11 7 -6 -4 -9 0 -7 11 2 13 -2 18 -14 16 -9 -1 -22 7 -28 18 -7
13 -18 19 -26 16 -8 -3 -14 -1 -14 5 0 6 -6 7 -12 3 -8 -5 -7 0 2 11 9 11 10
16 3 11 -8 -4 -13 -2 -13 7 0 10 -7 14 -22 10 -17 -3 -19 -2 -10 5 11 7 9 10
-7 15 -13 3 -21 14 -22 29 0 12 -3 17 -6 10 -4 -10 -8 -10 -21 0 -12 10 -14
10 -8 1 5 -9 0 -13 -14 -13 -17 0 -20 4 -15 20 7 22 2 24 -25 10 -15 -8 -17
-6 -13 13 4 18 3 19 -6 7 -9 -13 -11 -13 -11 1 0 12 -8 16 -30 14 -17 -1 -28
0 -25 3 10 10 -67 39 -97 37 -24 -2 -29 1 -25 14 5 20 -20 25 -40 9 -9 -7 -15
-5 -19 6 -3 9 -10 13 -15 10 -5 -3 -12 2 -15 10 -3 9 -10 13 -15 10 -5 -3 -9
1 -9 8 0 10 -2 10 -9 -1 -6 -9 -10 -10 -16 -2 -5 9 -10 9 -21 0 -11 -9 -14 -9
-14 1 0 7 -6 10 -14 7 -8 -3 -17 1 -20 8 -5 14 -35 13 -58 -1 -7 -4 -8 -3 -4
4 4 7 1 12 -8 12 -9 0 -16 3 -16 8 0 4 -23 8 -51 8 -28 1 -54 6 -58 11 -5 8
-397 13 -421 5z m835 -2052 c-4 -6 6 -7 25 -4 20 5 30 3 30 -6 0 -6 5 -10 12
-8 6 2 22 -6 36 -19 14 -13 34 -23 44 -23 11 0 16 -4 13 -10 -3 -5 3 -10 15
-10 14 0 19 -4 14 -12 -5 -8 -2 -9 9 -5 9 3 19 1 23 -5 5 -7 2 -8 -6 -3 -9 5
-11 4 -6 -3 4 -7 16 -12 27 -12 26 0 60 -36 53 -55 -5 -13 -2 -14 20 -6 26 10
46 -1 25 -14 -7 -5 -3 -12 10 -22 12 -8 21 -20 21 -26 0 -7 -4 -6 -10 3 -6 9
-10 10 -10 3 0 -20 18 -25 28 -7 8 14 11 14 23 2 8 -8 20 -13 27 -10 7 2 16
-5 19 -17 3 -12 10 -21 16 -21 6 0 7 -3 4 -7 -4 -3 -1 -13 6 -21 8 -11 8 -14
0 -9 -6 4 -14 3 -17 -2 -4 -5 2 -8 11 -6 10 2 18 4 18 5 0 1 7 3 16 5 12 2 15
-3 12 -16 -4 -13 0 -19 11 -19 9 0 34 -18 55 -39 22 -22 42 -37 46 -33 4 4 6
3 5 -3 -5 -25 1 -46 12 -39 7 5 8 3 2 -7 -20 -32 -10 -51 14 -27 9 9 12 9 12
-1 0 -7 5 -9 12 -5 6 4 8 3 4 -4 -3 -6 0 -14 8 -19 8 -4 16 -15 18 -23 2 -8
11 -22 20 -31 14 -12 15 -18 5 -29 -8 -8 -8 -11 -1 -7 7 4 15 -1 18 -10 6 -15
8 -15 16 -3 9 14 12 11 9 -6 0 -4 5 -11 13 -15 8 -6 9 -9 1 -9 -6 0 -9 -8 -6
-19 3 -13 12 -18 25 -16 12 3 18 2 15 -2 -4 -3 -2 -14 3 -24 7 -12 6 -19 -3
-22 -6 -3 -3 -6 8 -6 17 -1 17 -3 5 -11 -13 -8 -12 -10 3 -10 9 0 17 -5 17
-11 0 -5 4 -8 8 -5 5 3 9 -1 9 -9 0 -8 -4 -15 -9 -15 -4 0 -8 -4 -8 -10 0 -5
7 -7 15 -4 11 5 13 2 8 -12 -5 -13 -3 -16 10 -11 11 4 17 1 17 -8 0 -8 5 -15
10 -15 6 0 10 -9 10 -20 0 -11 9 -28 19 -37 15 -13 18 -21 10 -35 -5 -10 -6
-18 -2 -17 4 1 14 1 22 0 11 -1 11 -4 0 -18 -10 -11 -10 -14 -1 -9 7 4 12 1
12 -8 0 -9 6 -16 13 -16 8 0 7 -4 -3 -10 -12 -8 -12 -10 -1 -10 10 0 11 -3 2
-13 -15 -19 -1 -30 17 -14 13 10 14 9 8 -1 -4 -7 -2 -20 6 -29 8 -10 8 -14 1
-10 -6 4 -15 3 -18 -3 -4 -6 -3 -10 2 -9 25 4 32 -3 29 -31 -2 -21 1 -30 11
-30 8 0 12 -4 8 -9 -3 -5 -2 -12 3 -15 5 -3 7 -19 4 -35 -3 -22 0 -33 12 -37
9 -3 16 -10 16 -16 0 -5 -5 -6 -11 -2 -8 4 -8 0 0 -15 10 -18 9 -20 -6 -14
-12 4 -10 0 6 -14 23 -19 39 -69 18 -56 -5 3 -4 -4 2 -16 7 -11 8 -21 4 -21
-4 0 -2 -4 6 -9 10 -7 14 -27 13 -70 0 -35 4 -63 10 -67 7 -5 8 -2 3 6 -5 9
-4 11 4 6 6 -4 9 -12 5 -17 -3 -5 0 -17 8 -26 9 -12 10 -15 0 -9 -9 6 -11 -3
-8 -39 3 -27 1 -43 -4 -40 -6 3 -7 -1 -4 -9 3 -9 10 -13 15 -10 5 3 6 -2 3
-10 -3 -9 -10 -13 -16 -10 -5 3 -2 -9 8 -27 16 -33 16 -33 -1 -19 -17 14 -17
14 -7 -7 14 -26 15 -36 3 -29 -8 5 -8 -15 -1 -34 1 -3 2 -9 1 -14 -1 -4 4 -15
11 -24 11 -13 11 -14 -1 -7 -11 6 -13 3 -9 -12 3 -11 1 -27 -3 -36 -6 -10 -5
-18 1 -22 8 -5 8 -11 0 -20 -7 -9 -8 -15 -1 -19 6 -4 7 -14 4 -23 -5 -12 -3
-14 8 -8 12 8 12 6 0 -8 -11 -14 -11 -20 0 -34 12 -14 12 -16 0 -8 -11 6 -13
4 -8 -9 6 -14 3 -17 -9 -12 -12 4 -15 2 -10 -9 3 -8 0 -15 -7 -16 -9 0 -8 -2
1 -6 10 -4 10 -8 0 -21 -10 -12 -10 -14 0 -8 7 4 12 1 12 -9 0 -9 -4 -13 -10
-10 -7 4 -7 -3 0 -19 9 -25 6 -30 -13 -27 -5 1 -6 -3 -2 -9 3 -5 1 -10 -6 -10
-8 0 -8 -4 1 -15 7 -8 8 -15 3 -15 -11 0 -11 -29 0 -47 4 -6 1 -13 -7 -16 -20
-8 -26 -56 -8 -66 13 -7 11 -10 -7 -16 -15 -4 -20 -12 -17 -22 5 -11 1 -14
-11 -9 -16 5 -16 4 -2 -6 15 -10 14 -13 -2 -29 -11 -11 -16 -25 -12 -36 3 -10
3 -15 -1 -11 -12 10 -45 -23 -39 -38 3 -8 9 -12 13 -9 5 3 12 0 16 -6 4 -7 3
-10 -2 -7 -14 9 -31 -15 -28 -37 2 -11 -7 -28 -19 -38 -12 -10 -16 -16 -9 -12
6 3 12 2 12 -3 0 -15 -26 -33 -36 -24 -4 4 -2 -1 5 -10 10 -13 10 -18 2 -18
-7 0 -9 -5 -5 -12 5 -8 2 -9 -9 -5 -18 7 -19 -13 -2 -25 6 -4 1 -8 -9 -8 -11
0 -16 -3 -13 -7 4 -3 -2 -12 -13 -20 -13 -10 -18 -23 -16 -43 2 -21 -5 -37
-27 -61 -16 -18 -34 -45 -39 -61 -5 -15 -15 -26 -21 -25 -7 1 -11 -6 -11 -15
1 -10 -3 -15 -9 -11 -6 4 -8 0 -4 -10 4 -10 -1 -18 -13 -22 -10 -3 -22 -15
-25 -26 -4 -10 -10 -17 -14 -15 -4 3 -15 -4 -24 -14 -11 -13 -12 -20 -4 -23 8
-3 5 -10 -8 -20 -11 -8 -23 -13 -28 -10 -4 2 -7 1 -6 -4 3 -20 -2 -34 -11 -28
-5 3 -10 -1 -10 -10 0 -11 -5 -15 -16 -11 -8 3 -13 2 -9 -3 7 -13 -24 -43 -37
-35 -7 4 -8 2 -4 -5 5 -7 -4 -16 -23 -24 -22 -9 -28 -16 -20 -24 8 -8 7 -13
-2 -18 -8 -6 -10 -4 -5 6 4 8 0 5 -8 -6 -9 -10 -15 -24 -13 -30 5 -13 -40 -55
-59 -55 -7 0 -14 -4 -14 -10 0 -5 -5 -10 -11 -10 -5 0 -7 6 -3 13 6 9 4 9 -8
-1 -13 -10 -17 -10 -21 0 -4 8 -6 7 -6 -4 -1 -10 -6 -17 -12 -15 -6 1 -13 -8
-15 -21 -3 -16 0 -21 8 -17 7 4 5 0 -4 -8 -10 -8 -14 -18 -10 -22 10 -12 -20
6 -40 23 -10 8 -18 12 -18 7 0 -4 8 -14 18 -22 16 -14 16 -14 -2 -9 -15 5 -17
4 -7 -8 9 -11 8 -15 -6 -21 -10 -5 -22 -7 -26 -6 -5 1 -6 -2 -3 -7 6 -10 -30
-43 -38 -35 -3 4 -6 1 -6 -6 0 -7 -4 -10 -9 -6 -5 3 -16 -1 -24 -9 -8 -8 -17
-12 -21 -9 -3 4 -6 1 -6 -6 0 -7 -10 -11 -22 -9 -14 2 -33 -7 -51 -24 -15 -16
-32 -28 -38 -28 -6 0 -7 -6 -4 -12 4 -7 1 -6 -7 3 -7 9 -21 15 -30 13 -10 -1
-18 2 -18 7 0 5 -5 9 -11 9 -5 0 -7 -5 -3 -12 4 -7 3 -8 -5 -4 -7 5 -9 16 -5
28 4 14 2 18 -5 14 -6 -4 -11 0 -11 8 0 9 -6 16 -12 16 -7 0 -2 7 10 16 12 8
22 24 22 35 0 11 4 18 9 14 5 -3 12 -1 16 5 3 5 20 10 37 10 26 0 29 2 18 15
-11 13 -10 14 3 10 8 -4 18 -1 22 4 3 6 11 9 16 5 5 -3 7 -9 4 -14 -3 -4 3 -7
12 -6 9 2 19 8 21 14 2 7 7 10 11 8 4 -3 8 2 8 11 0 12 -5 11 -19 -7 -10 -12
-18 -17 -18 -11 0 6 0 14 0 19 0 4 3 7 8 8 19 2 41 17 36 25 -3 5 -1 9 5 9 6
0 22 12 37 28 15 15 23 20 20 12 -4 -8 0 -6 9 5 9 11 18 18 20 15 2 -3 13 3
24 12 14 12 21 13 25 5 2 -7 5 -5 5 4 1 16 23 31 46 33 5 1 10 9 10 18 0 9 27
42 60 74 33 31 59 61 57 66 -1 5 2 7 8 3 5 -3 10 -1 10 5 0 6 4 9 9 6 4 -3 17
1 27 9 13 10 15 14 5 15 -10 0 -7 6 7 19 12 10 19 21 15 24 -9 10 18 38 30 30
6 -3 7 -1 3 5 -3 6 3 16 15 22 11 6 25 25 31 41 6 18 16 28 23 25 8 -3 19 3
27 12 7 8 8 13 2 9 -13 -8 -13 38 0 50 5 4 6 1 2 -7 -4 -8 0 -6 8 4 9 11 12
22 7 25 -5 3 -3 12 5 19 8 7 14 9 14 5 0 -4 8 4 18 20 10 15 22 24 27 20 4 -5
5 0 2 10 -4 9 -2 17 3 17 5 0 6 7 3 17 -5 12 -3 14 7 8 10 -6 12 -2 8 19 -4
18 -1 26 9 26 9 0 13 6 9 15 -4 11 1 15 17 15 18 0 19 2 7 10 -11 7 -11 10 -2
10 7 0 10 5 7 10 -3 6 0 13 8 16 9 3 13 13 10 25 -3 10 0 26 7 34 6 8 8 20 4
26 -4 8 -3 9 4 5 12 -7 16 5 13 32 -1 6 3 12 10 12 6 0 9 7 5 15 -3 8 -2 15 2
15 4 0 13 9 20 21 11 17 11 20 0 14 -7 -3 -4 1 6 9 11 9 17 16 13 16 -4 0 -3
9 2 19 8 15 7 20 -7 26 -16 6 -16 7 1 20 13 10 15 14 5 18 -8 3 -6 6 5 6 10 1
16 5 12 10 -3 5 -1 12 3 15 10 6 9 36 -2 54 -4 7 -2 12 5 12 7 0 9 3 6 7 -4 3
0 15 10 25 9 10 11 18 5 18 -6 0 -9 7 -6 15 4 8 10 13 14 10 5 -3 6 4 3 15 -3
11 -9 18 -13 15 -5 -3 -12 0 -16 6 -4 8 -3 9 4 5 7 -4 13 -2 13 3 1 6 2 16 3
21 0 6 8 15 16 20 13 9 13 11 0 20 -8 5 -10 10 -5 10 6 0 11 9 12 20 1 13 -2
18 -10 13 -7 -4 -6 1 2 11 13 15 13 19 0 27 -11 7 -11 9 0 9 10 0 11 3 2 13
-8 10 -7 19 5 33 8 10 12 13 8 5 -5 -9 -3 -12 4 -7 15 9 16 46 1 46 -5 0 -7 5
-4 10 3 6 -2 10 -12 11 -10 0 -13 3 -6 5 7 3 9 12 6 21 -5 12 -2 14 8 9 8 -4
6 -1 -3 7 -14 11 -15 16 -5 27 9 10 9 14 -2 17 -11 4 -11 7 0 13 10 7 10 12
-2 26 -8 10 -9 15 -3 11 7 -4 12 2 12 18 0 16 -5 22 -12 18 -6 -4 -5 1 3 10
11 14 11 17 0 17 -11 0 -11 2 0 9 13 8 13 12 0 27 -9 11 -9 15 -1 10 6 -4 12
-2 12 3 0 6 -4 11 -10 11 -5 0 -10 9 -10 20 0 11 -6 20 -12 20 -9 0 -8 4 2 10
13 8 13 10 1 10 -11 0 -12 3 -3 12 8 8 8 17 1 31 -6 11 -7 17 -2 14 5 -4 10 1
10 9 0 9 -6 13 -14 10 -8 -3 -11 -1 -8 4 3 6 0 10 -7 10 -10 0 -9 3 2 11 12 9
13 12 1 16 -11 5 -11 7 0 14 12 7 12 9 0 9 -11 0 -11 3 -1 15 8 10 9 15 2 15
-7 0 -9 8 -5 18 6 14 4 15 -8 5 -12 -9 -14 -6 -14 22 0 18 3 31 8 28 4 -2 7 1
7 6 0 6 -5 11 -10 11 -6 0 -10 6 -9 13 3 25 -1 38 -11 32 -11 -7 -8 30 2 41 7
6 0 17 -35 55 -10 12 -16 32 -15 52 2 23 -1 31 -11 29 -8 -2 -11 3 -8 13 8 19
-2 47 -14 39 -5 -3 -9 3 -9 12 0 10 -19 36 -42 58 -24 22 -37 36 -30 32 10 -6
13 -2 10 15 -4 30 -20 49 -33 41 -5 -3 -4 2 4 12 12 14 12 19 2 25 -7 5 -11
12 -9 16 1 4 -13 15 -32 26 -19 10 -29 18 -21 19 10 0 8 5 -6 18 -11 9 -19 25
-17 35 1 9 -4 17 -12 17 -8 0 -14 5 -14 11 0 5 6 7 13 3 9 -5 9 -4 0 6 -6 7
-9 20 -6 29 6 14 4 14 -14 -2 -23 -20 -39 -11 -20 11 8 10 8 13 1 9 -7 -4 -15
0 -18 9 -3 8 -10 12 -16 9 -6 -3 -7 1 -4 10 4 10 2 15 -7 13 -8 -2 -13 3 -11
10 1 6 -2 12 -6 12 -5 0 -19 9 -32 20 -13 11 -19 20 -15 20 5 0 0 7 -11 16
-10 8 -13 13 -7 9 9 -4 11 -1 7 9 -3 9 -12 16 -19 16 -8 0 -17 5 -21 12 -5 7
-2 8 7 3 8 -4 5 1 -6 12 -11 11 -23 19 -27 16 -5 -2 -8 1 -8 6 0 6 -3 10 -7
10 -19 -3 -33 2 -33 12 0 5 5 7 11 4 6 -4 5 2 -2 13 -7 12 -17 18 -21 16 -4
-3 -8 0 -8 5 0 6 -7 11 -15 11 -8 0 -15 5 -15 11 0 5 -4 8 -9 4 -6 -3 -14 2
-19 10 -5 9 -16 17 -25 19 -20 3 -35 16 -19 16 7 0 12 5 12 10 0 6 -9 10 -20
10 -11 0 -20 5 -20 11 0 5 -4 8 -9 4 -5 -3 -16 1 -24 9 -8 8 -17 12 -21 9 -3
-4 -6 -1 -6 6 0 7 -6 11 -13 8 -8 -3 -20 3 -27 13 -8 11 -17 17 -22 14 -4 -3
-8 0 -8 6 0 6 -7 18 -15 26 -12 12 -15 12 -16 2 0 -10 -2 -10 -6 0 -2 6 -9 10
-14 6 -5 -3 -9 -1 -9 5 0 5 -9 8 -20 6 -13 -3 -18 0 -14 7 5 7 2 9 -9 5 -9 -3
-18 0 -21 9 -3 8 -1 14 3 14 5 0 12 8 15 17 8 20 -9 40 -19 22 -6 -8 -4 -10 5
-4 8 5 11 3 8 -5 -2 -8 -10 -16 -18 -18 -7 -3 -10 0 -6 7 4 6 2 11 -5 11 -6 0
-1 9 12 21 13 11 18 18 12 14 -7 -3 -13 -1 -13 4 0 15 27 14 32 -1 3 -7 7 -5
11 6 4 10 3 15 -3 11 -11 -7 -14 28 -3 38 10 10 15 8 8 -3z m-1902 -19 c10 -1
15 -5 12 -11 -3 -6 1 -7 9 -4 9 3 13 11 9 18 -3 7 -1 6 7 -1 16 -15 23 -46 8
-37 -6 4 -5 -3 1 -15 7 -12 9 -27 5 -33 -4 -6 -3 -8 4 -4 6 3 13 2 17 -4 7
-11 5 -11 -40 -14 -19 -1 -29 -7 -27 -15 1 -7 -3 -11 -10 -8 -7 2 -22 -3 -32
-12 -11 -9 -16 -10 -12 -4 5 9 2 11 -8 7 -8 -3 -17 -12 -20 -20 -3 -9 -10 -13
-15 -9 -6 3 -8 -3 -6 -13 2 -10 -5 -24 -17 -31 -15 -10 -18 -10 -13 0 5 8 4
10 -3 5 -7 -4 -12 -14 -12 -23 0 -13 -3 -13 -15 -3 -11 9 -15 9 -15 1 0 -7
-10 -10 -25 -7 -20 4 -24 2 -17 -11 11 -18 -40 -79 -57 -69 -6 4 -11 2 -11 -3
0 -6 -4 -11 -10 -11 -5 0 -19 -9 -31 -21 -11 -11 -27 -18 -35 -15 -10 4 -13 2
-7 -7 4 -6 8 -18 9 -25 2 -10 -1 -11 -12 -1 -8 7 -14 8 -12 3 4 -16 -21 -52
-42 -59 -11 -3 -20 -13 -20 -21 0 -8 -4 -13 -9 -9 -5 3 -12 1 -16 -5 -4 -6
-10 -8 -15 -5 -5 3 -11 1 -14 -4 -4 -5 -2 -12 4 -16 6 -4 5 -11 -3 -19 -6 -8
-15 -12 -19 -10 -4 2 -15 -9 -24 -25 -10 -17 -21 -28 -26 -25 -7 4 -9 -4 -8
-31 1 -11 -25 -33 -32 -28 -5 2 -8 -3 -8 -12 0 -10 -5 -13 -12 -9 -9 5 -9 2 1
-9 7 -9 11 -17 7 -17 -26 0 -58 -19 -51 -30 4 -6 -1 -7 -11 -3 -12 4 -15 3
-10 -5 4 -8 0 -12 -11 -12 -15 0 -16 -2 -3 -10 8 -5 10 -10 5 -10 -6 0 -11 -9
-12 -20 -1 -12 3 -18 8 -14 10 6 -10 -36 -22 -46 -3 -3 -9 -14 -13 -25 -6 -14
-10 -16 -13 -7 -3 9 -12 2 -25 -18 -10 -18 -17 -35 -14 -38 3 -3 -2 -11 -12
-19 -9 -8 -11 -11 -3 -7 9 5 12 3 7 -4 -4 -7 -15 -12 -24 -12 -14 0 -14 -1 2
-13 16 -12 16 -14 -2 -35 -11 -12 -25 -22 -32 -22 -10 0 -10 -3 -1 -14 8 -10
9 -16 1 -21 -6 -3 -8 -11 -5 -16 4 -5 1 -9 -5 -9 -6 0 -8 -4 -5 -10 3 -5 -2
-10 -12 -11 -10 0 -13 -3 -5 -6 6 -2 12 -9 12 -14 0 -6 -6 -7 -12 -3 -9 5 -9
2 1 -9 11 -14 11 -17 0 -18 -8 -1 -18 -1 -23 0 -5 1 -3 -6 5 -15 9 -12 9 -15
2 -10 -19 11 -16 -5 4 -19 13 -9 13 -14 3 -20 -9 -6 -11 -4 -5 5 5 9 4 11 -4
6 -6 -4 -9 -12 -6 -17 4 -5 -1 -17 -10 -26 -13 -13 -14 -18 -3 -24 10 -7 10
-9 -2 -9 -13 0 -13 -1 0 -10 13 -9 13 -10 0 -10 -12 0 -12 -2 -1 -9 10 -7 9
-11 -7 -23 -11 -8 -22 -20 -24 -28 -2 -8 -7 -18 -13 -22 -6 -4 -2 -8 8 -8 9 0
17 -5 17 -11 0 -5 -4 -8 -9 -5 -5 3 -11 -1 -15 -9 -3 -8 0 -15 6 -15 9 0 9 -3
0 -12 -8 -8 -8 -15 -2 -23 12 -14 3 -45 -12 -45 -5 0 -6 -4 -3 -10 3 -5 2 -10
-4 -10 -5 0 -9 -9 -8 -20 1 -11 5 -20 10 -20 4 0 5 -5 2 -10 -4 -6 -11 -8 -16
-5 -12 8 2 -28 15 -37 7 -5 7 -8 1 -8 -6 0 -11 -9 -12 -20 -1 -11 1 -18 5 -16
4 3 8 -4 8 -14 0 -15 -3 -17 -15 -7 -12 10 -13 9 -3 -9 8 -16 8 -24 -1 -34 -9
-10 -9 -11 0 -6 6 3 14 2 17 -3 3 -5 -1 -12 -10 -15 -12 -5 -13 -10 -5 -19 6
-8 8 -32 5 -56 -4 -33 -2 -41 8 -35 10 6 10 4 -1 -9 -11 -14 -11 -17 0 -18 10
0 11 -2 2 -6 -7 -2 -13 -13 -13 -24 0 -10 6 -19 13 -20 10 0 10 -2 0 -6 -7 -2
-13 -9 -13 -14 0 -6 6 -7 13 -3 9 6 9 5 0 -7 -6 -8 -11 -18 -11 -24 0 -5 5
-16 11 -24 10 -12 9 -13 -7 -8 -14 6 -16 5 -8 -5 15 -19 15 -30 0 -39 -10 -6
-8 -9 7 -9 15 0 17 -3 7 -9 -11 -6 -10 -10 3 -15 9 -3 15 -12 12 -20 -3 -7 0
-19 6 -26 9 -10 9 -11 0 -6 -8 4 -13 1 -13 -7 0 -19 25 -68 32 -62 11 12 1
-35 -11 -49 -12 -14 -11 -16 3 -10 20 8 23 -25 4 -45 -7 -7 -8 -12 -3 -11 28
6 37 0 26 -14 -10 -12 -8 -17 9 -26 18 -10 19 -14 8 -28 -10 -12 -10 -14 0 -8
6 4 12 3 12 -3 0 -5 -5 -13 -10 -16 -7 -4 -2 -14 11 -26 13 -11 17 -19 9 -19
-8 0 -4 -8 8 -19 24 -20 30 -37 10 -25 -7 4 -5 -2 5 -13 15 -18 16 -22 3 -32
-23 -20 -8 -43 25 -37 26 4 27 2 19 -20 -9 -23 -6 -28 13 -25 5 1 6 -3 2 -9
-3 -5 0 -10 7 -10 11 0 10 -2 0 -9 -11 -7 -11 -9 2 -14 10 -4 16 -18 16 -37 0
-22 4 -29 13 -24 7 5 6 0 -3 -11 -8 -10 -10 -16 -4 -12 14 8 57 -31 49 -44 -4
-5 1 -9 11 -9 13 0 14 -3 4 -15 -9 -11 -7 -19 13 -39 14 -14 28 -23 31 -20 3
2 2 -1 -4 -8 -6 -8 -3 -17 12 -30 12 -10 16 -18 9 -18 -7 0 -9 -5 -6 -10 4 -6
11 -8 16 -5 5 4 9 2 9 -4 0 -6 8 -8 18 -4 9 3 14 3 10 -2 -4 -4 0 -14 10 -22
10 -9 11 -12 2 -7 -11 6 -10 2 3 -13 9 -11 17 -25 17 -32 0 -7 4 -10 8 -7 9 5
35 -23 40 -43 2 -9 -3 -11 -14 -7 -14 5 -15 4 -4 -9 8 -10 21 -13 38 -8 17 4
23 2 18 -6 -4 -6 -1 -11 9 -11 9 0 24 -13 33 -30 9 -16 21 -30 25 -30 11 0 67
-59 67 -70 0 -6 6 -10 14 -10 9 0 13 -7 11 -19 -3 -14 1 -18 11 -14 8 3 14 -1
14 -8 0 -11 3 -11 10 1 7 12 10 12 10 1 0 -7 6 -11 15 -7 10 3 17 -3 21 -19 4
-16 11 -22 22 -18 9 4 13 2 9 -4 -4 -6 1 -17 10 -24 12 -10 14 -10 9 -1 -12
20 8 14 24 -7 7 -11 17 -18 22 -15 4 3 8 -3 8 -13 0 -15 2 -16 10 -3 6 10 10
11 10 3 0 -7 10 -13 21 -13 17 0 19 -3 10 -14 -9 -10 -9 -16 -1 -21 6 -4 14
-4 17 -1 3 3 18 -1 34 -10 16 -8 31 -14 34 -14 3 0 6 -3 7 -7 2 -14 32 -31 45
-26 16 6 17 -9 1 -25 -8 -8 -5 -16 13 -32 14 -12 18 -19 9 -18 -8 2 -14 -2
-13 -9 2 -7 -3 -10 -11 -7 -8 3 -17 0 -21 -5 -3 -6 -11 -9 -16 -6 -5 4 -9 1
-9 -5 0 -13 -54 -4 -58 10 -2 5 -8 8 -13 4 -5 -3 -9 1 -9 9 0 8 -9 17 -20 20
-11 3 -20 1 -20 -5 0 -5 -12 -1 -27 10 -16 11 -36 18 -45 17 -10 -2 -18 1 -18
7 0 6 8 7 18 3 14 -5 15 -4 5 6 -15 15 -17 33 -3 24 6 -4 7 1 3 11 -4 12 -8
14 -11 6 -3 -10 -7 -10 -20 0 -13 11 -14 11 -7 -1 6 -11 4 -13 -11 -7 -10 5
-25 9 -31 9 -7 0 -13 4 -13 9 0 5 -6 15 -13 21 -65 59 -79 70 -72 57 4 -8 -6
0 -23 18 -17 17 -36 32 -41 32 -6 0 -11 7 -11 16 0 8 -4 12 -10 9 -5 -3 -10
-1 -10 4 0 6 -9 11 -20 11 -11 0 -19 3 -19 8 4 22 -2 42 -11 37 -5 -3 -10 -2
-10 3 0 5 -14 15 -31 22 -23 10 -29 18 -26 32 5 16 3 17 -9 7 -12 -10 -13 -9
-8 5 4 10 0 18 -10 22 -9 3 -13 10 -10 15 3 5 -2 9 -11 9 -9 0 -14 4 -11 9 3
5 -4 11 -15 14 -12 3 -18 10 -15 16 4 5 -3 12 -14 16 -11 4 -20 12 -19 18 3
19 -12 47 -25 47 -6 0 -24 14 -39 31 -19 22 -22 29 -10 24 15 -5 16 -4 6 6 -7
7 -13 21 -13 31 0 10 -4 18 -10 18 -13 0 -41 56 -32 66 4 5 1 4 -7 -3 -16 -14
-41 4 -33 25 2 8 -5 16 -18 19 -15 4 -18 8 -9 13 9 6 9 12 -3 24 -9 8 -18 13
-20 11 -3 -3 -5 2 -5 10 0 8 4 12 9 9 4 -3 8 -1 8 4 0 5 -10 12 -22 16 -16 4
-19 8 -10 14 9 6 7 13 -8 30 -14 14 -16 22 -8 22 7 1 3 6 -10 13 -12 7 -19 16
-15 20 11 11 13 38 2 31 -5 -3 -9 2 -9 10 0 9 -5 16 -11 16 -8 0 -7 6 2 17 10
12 10 14 1 9 -7 -4 -15 -1 -18 8 -3 9 -10 13 -15 10 -5 -3 -6 2 -3 10 3 9 11
13 18 9 6 -3 7 -2 3 3 -5 5 -13 10 -18 10 -5 1 -12 2 -15 3 -4 0 -1 8 6 16 10
13 9 18 -7 33 -14 12 -20 29 -19 55 1 27 -3 37 -14 37 -13 0 -13 1 0 10 13 8
13 10 -2 10 -15 0 -16 4 -8 26 7 16 7 23 0 19 -6 -3 -10 -1 -10 5 0 6 -4 8
-10 5 -6 -3 -7 1 -4 10 4 9 13 14 22 10 12 -4 12 -2 4 8 -7 8 -8 18 -4 22 4 5
2 5 -4 2 -7 -4 -17 7 -25 26 -17 39 -17 44 -8 80 5 19 4 25 -3 21 -7 -5 -9 0
-6 14 4 12 0 23 -7 26 -14 5 -15 23 -2 43 6 9 3 11 -10 6 -15 -6 -16 -4 -5 9
9 11 10 18 2 23 -13 8 -13 25 1 25 5 0 7 -5 3 -12 -4 -7 -3 -8 5 -4 9 6 8 14
-4 33 -10 14 -13 23 -8 20 6 -4 10 7 11 23 0 17 -4 30 -9 30 -5 0 -9 7 -9 15
0 8 -6 15 -12 15 -10 0 -10 2 0 9 8 4 14 12 14 16 0 4 -6 12 -14 16 -8 5 -8 9
-2 9 7 0 10 13 8 30 -2 17 1 30 7 30 6 0 7 5 4 10 -3 6 -1 10 4 10 12 0 10 27
-3 48 -5 8 -4 18 3 25 7 7 7 15 -2 26 -9 11 -9 13 0 8 15 -9 14 32 -1 52 -9
12 -8 13 3 6 11 -6 13 -4 8 8 -8 20 2 49 13 42 10 -6 7 15 -4 34 -7 10 -5 12
3 6 10 -5 11 2 7 30 -5 27 -3 34 6 29 10 -6 10 -4 2 7 -14 18 -2 65 16 61 11
-2 11 0 1 11 -9 12 -8 16 4 20 11 5 14 19 12 52 -1 25 1 45 6 45 4 0 5 5 2 10
-6 9 7 14 30 11 6 -1 1 6 -9 14 -14 11 -16 15 -5 15 12 0 12 2 0 9 -11 7 -10
11 7 20 13 7 19 17 16 26 -4 8 1 17 9 21 11 4 14 17 12 45 -2 21 1 37 6 33 5
-3 9 2 9 11 0 9 4 13 10 10 6 -3 7 1 4 9 -3 9 -1 16 4 16 6 0 9 12 6 27 -4 23
-3 25 11 13 13 -11 15 -10 9 4 -4 9 -1 16 6 16 9 0 9 4 -1 17 -10 11 -10 14
-1 9 7 -4 12 -2 12 8 0 8 6 17 13 19 9 4 8 8 -3 16 -11 8 -12 11 -2 11 7 0 10
5 7 10 -3 6 1 10 9 10 9 0 16 4 16 9 0 5 8 8 17 7 10 0 19 7 21 18 3 12 0 16
-8 11 -8 -5 -7 0 2 14 7 12 15 21 19 21 10 0 7 34 -4 48 -7 9 -5 11 8 5 14 -5
17 -3 12 10 -4 11 -2 14 9 10 9 -3 14 0 12 8 -2 7 3 13 11 14 15 0 33 49 23
60 -4 3 2 3 12 -1 11 -4 17 -3 14 2 -2 5 11 25 31 44 19 19 31 29 26 21 -6
-10 -4 -12 4 -6 9 5 9 11 3 17 -12 12 -4 40 9 32 5 -3 12 2 15 10 3 9 10 13
15 10 5 -3 6 1 3 9 -5 15 74 104 89 99 4 -1 7 6 5 15 -2 10 2 17 10 15 7 -1
15 5 18 13 3 8 10 12 15 9 5 -3 9 0 9 6 0 6 4 9 9 5 6 -3 15 4 21 15 6 12 18
19 25 16 9 -3 12 0 8 10 -4 12 1 16 23 13 3 0 15 10 28 24 12 13 27 22 34 19
7 -2 15 3 18 12 3 9 10 13 15 10 5 -3 9 2 9 11 0 9 4 14 8 11 5 -3 8 5 8 17
-1 13 6 23 18 25 11 2 16 0 12 -7 -5 -7 -1 -8 9 -5 9 4 14 12 12 18 -3 9 29
49 36 44 7 -5 48 12 45 19 -5 9 22 37 41 41 7 1 10 -2 6 -8 -3 -5 -1 -10 4
-10 6 0 11 4 11 9 0 18 29 38 52 35 12 -1 31 -3 41 -3z m227 -566 c6 -3 8 -11
5 -16 -4 -5 -1 -9 4 -9 6 0 11 -9 11 -21 0 -13 -5 -18 -12 -14 -7 3 -6 0 3 -6
15 -11 14 -14 -2 -30 -10 -10 -30 -21 -45 -25 -19 -5 -22 -9 -12 -15 10 -7 10
-9 -2 -9 -13 0 -13 -1 0 -11 12 -9 11 -10 -7 -6 -13 3 -25 1 -28 -4 -3 -4 -13
-5 -22 -2 -10 4 -14 2 -10 -4 7 -10 -19 -28 -35 -25 -5 1 -8 -3 -8 -8 0 -6
-11 -8 -24 -6 -17 3 -23 1 -20 -8 3 -8 -2 -20 -10 -29 -8 -8 -12 -18 -8 -22 4
-5 -1 -5 -10 -2 -12 4 -16 1 -13 -13 2 -11 0 -22 -6 -25 -5 -4 -9 -2 -9 3 0 5
-7 9 -15 9 -11 0 -12 -3 -3 -14 6 -8 7 -13 2 -12 -21 4 -28 -2 -14 -11 12 -8
10 -10 -8 -10 -13 0 -20 -4 -17 -10 6 -9 -8 -15 -29 -11 -5 1 -6 -6 -2 -15 5
-14 4 -15 -9 -4 -14 11 -14 10 -6 -13 9 -22 7 -28 -10 -37 -10 -6 -23 -8 -28
-6 -10 7 -24 -22 -16 -34 3 -4 -2 -11 -11 -14 -8 -3 -12 -2 -9 4 3 5 0 7 -8 4
-7 -2 -14 -12 -14 -20 0 -9 6 -13 15 -9 12 4 12 2 4 -8 -7 -8 -8 -18 -4 -22 4
-5 1 -5 -5 -1 -7 4 -13 3 -13 -3 0 -5 -9 -13 -20 -16 -11 -4 -18 -11 -15 -16
4 -5 1 -9 -4 -9 -6 0 -11 -5 -11 -11 0 -5 6 -7 13 -3 8 5 8 3 -2 -9 -7 -9 -17
-15 -21 -12 -5 3 -6 -5 -2 -17 3 -13 1 -19 -6 -15 -6 4 -19 -12 -32 -38 -12
-25 -27 -45 -33 -46 -8 0 -8 -2 0 -6 10 -3 10 -10 2 -25 -8 -15 -8 -19 0 -14
6 4 11 2 11 -3 0 -6 -5 -11 -11 -11 -5 0 -8 -4 -5 -9 3 -5 -2 -12 -11 -15 -15
-6 -15 -8 -3 -16 13 -9 13 -10 0 -10 -12 0 -13 -2 -1 -9 11 -7 9 -11 -9 -21
-18 -10 -20 -14 -9 -21 8 -5 9 -9 3 -9 -6 0 -11 -7 -11 -15 0 -8 4 -15 9 -15
5 0 0 -10 -11 -22 -16 -16 -18 -25 -9 -35 9 -11 7 -12 -7 -6 -15 5 -17 3 -12
-11 4 -9 3 -15 -2 -12 -5 3 -8 -17 -8 -44 1 -28 6 -50 11 -50 5 0 2 -6 -9 -13
-14 -11 -15 -16 -5 -22 9 -6 11 -4 5 5 -6 9 -4 11 4 5 9 -5 9 -11 3 -17 -6 -6
-8 -17 -5 -26 4 -10 2 -13 -5 -8 -8 5 -10 2 -6 -8 3 -9 11 -13 18 -9 6 4 5 -1
-3 -10 -11 -14 -11 -17 0 -17 8 0 6 -5 -6 -13 -14 -11 -15 -16 -5 -22 9 -6 11
-4 5 5 -6 9 -4 11 4 5 9 -5 9 -11 3 -17 -6 -6 -8 -17 -5 -26 4 -10 2 -13 -5
-8 -8 5 -10 2 -6 -8 3 -9 11 -16 18 -16 6 0 4 -5 -4 -10 -11 -7 -11 -10 -2
-10 7 0 10 -5 7 -10 -4 -6 -11 -8 -16 -5 -5 3 -6 -1 -3 -9 3 -9 11 -13 17 -9
6 4 7 1 2 -8 -16 -25 -15 -99 0 -99 9 0 12 -6 8 -17 -5 -12 -3 -14 7 -8 10 6
11 4 4 -6 -14 -24 -16 -51 -2 -43 10 6 11 4 1 -7 -15 -16 -17 -33 -3 -24 9 6
14 -8 11 -27 0 -5 4 -8 10 -8 8 0 7 -6 -2 -17 -12 -15 -12 -16 1 -8 12 6 13 5
3 -5 -9 -10 -7 -17 10 -32 14 -12 18 -21 11 -24 -9 -4 -9 -11 0 -29 6 -14 14
-25 17 -25 7 0 5 -32 -3 -46 -4 -5 -2 -16 4 -24 8 -12 9 -11 4 4 -7 19 -6 19
12 3 10 -9 22 -14 26 -10 4 4 4 0 0 -10 -3 -9 -1 -17 5 -17 6 0 8 -6 5 -14 -3
-8 0 -17 7 -22 8 -5 10 -3 4 6 -5 9 -4 11 4 6 9 -6 9 -11 0 -22 -9 -11 -8 -14
2 -14 11 0 11 -2 -1 -10 -13 -9 -13 -10 0 -11 8 -1 17 -1 21 -1 3 0 11 -8 18
-20 10 -16 10 -19 -1 -12 -10 6 -10 4 1 -9 11 -14 11 -17 0 -17 -11 0 -11 -2
1 -10 8 -5 11 -10 5 -10 -5 0 1 -7 15 -14 14 -8 29 -12 34 -9 5 4 6 1 2 -5 -4
-8 0 -12 10 -12 17 0 17 -1 1 -12 -11 -9 -14 -18 -8 -26 4 -8 10 -13 12 -11
11 6 49 -14 49 -27 0 -13 12 -19 33 -15 5 1 6 -3 2 -9 -3 -5 1 -13 10 -16 13
-5 13 -9 3 -22 -11 -13 -11 -14 1 -7 11 6 13 4 8 -8 -5 -13 -2 -15 16 -8 25 9
47 4 47 -10 0 -6 -4 -8 -9 -5 -5 3 -11 -2 -13 -12 -4 -13 2 -17 24 -19 52 -4
58 -6 58 -26 0 -11 3 -18 6 -14 3 3 17 -5 30 -18 13 -13 33 -26 44 -30 11 -4
18 -11 15 -16 -5 -8 1 -11 21 -8 3 0 14 -9 24 -21 11 -12 23 -19 29 -16 5 3 8
-5 7 -19 -2 -13 0 -22 4 -20 4 3 14 -3 21 -12 12 -15 12 -16 -6 -9 -16 6 -18
5 -7 -5 14 -15 16 -43 2 -34 -9 5 -15 -24 -11 -48 1 -5 -3 -6 -9 -2 -6 3 -7
11 -4 17 5 7 2 8 -6 3 -7 -4 -16 -2 -20 6 -10 15 -51 20 -44 5 3 -6 -3 -1 -12
12 -9 12 -25 22 -36 22 -10 0 -21 7 -24 15 -4 10 -13 13 -25 10 -13 -4 -19 -1
-19 9 0 8 -5 18 -12 22 -7 5 -8 2 -3 -7 5 -10 3 -9 -9 2 -9 9 -18 25 -19 36
-1 21 -26 26 -39 8 -4 -6 -8 -2 -8 8 0 10 -5 15 -11 12 -6 -4 -13 2 -16 14 -3
11 -8 19 -12 17 -3 -2 -15 6 -26 17 -11 11 -13 16 -5 12 13 -8 13 -6 1 8 -7 9
-17 15 -21 12 -15 -9 -21 14 -7 27 11 10 12 15 1 25 -7 7 -16 13 -20 13 -4 0
-12 7 -19 17 -9 13 -14 13 -20 3 -6 -9 -4 -11 5 -5 9 5 11 4 6 -4 -6 -8 -12
-9 -20 -2 -7 6 -16 8 -19 4 -4 -3 -7 1 -7 10 0 9 -9 22 -20 29 -11 7 -20 18
-20 25 0 7 -7 10 -15 7 -11 -5 -13 -2 -9 10 4 10 -5 26 -25 45 -18 17 -27 32
-21 36 6 4 5 11 -3 19 -6 8 -15 12 -19 9 -5 -2 -8 3 -8 12 0 10 -5 13 -12 9
-7 -4 -8 -3 -4 5 4 6 2 18 -4 26 -6 8 -8 20 -4 26 4 8 3 9 -4 5 -7 -4 -12 -1
-12 9 0 9 -4 13 -10 10 -5 -3 -10 1 -10 9 0 9 5 16 11 16 6 0 3 7 -5 16 -20
19 -20 25 -1 18 12 -5 13 -2 6 17 -4 13 -10 22 -13 19 -2 -3 -12 3 -22 13 -10
9 -22 14 -28 11 -7 -4 -8 -2 -4 4 4 7 3 12 -3 12 -6 0 -9 6 -6 13 8 24 13 87
6 83 -4 -3 -13 -1 -21 5 -13 7 -13 9 0 9 13 0 13 1 0 10 -9 6 -11 10 -3 10 7
0 10 7 7 15 -4 8 -10 13 -14 10 -4 -3 -11 2 -14 11 -4 10 -2 13 7 8 8 -6 8 -3
-1 9 -8 9 -10 22 -6 28 5 8 2 10 -8 6 -13 -4 -15 1 -13 28 2 19 6 39 9 44 4 5
1 13 -5 17 -8 5 -9 3 -4 -7 6 -11 5 -11 -4 -3 -7 7 -13 28 -14 47 0 20 -4 34
-9 31 -4 -3 -5 2 -2 10 3 9 11 13 18 9 8 -4 8 -2 -1 7 -6 7 -9 19 -6 28 5 11
3 13 -7 7 -9 -6 -11 -4 -5 6 12 19 15 60 4 54 -5 -3 -6 1 -3 9 3 9 11 13 18 9
6 -4 5 1 -3 10 -7 9 -11 17 -7 17 3 0 1 12 -5 26 -9 25 -8 26 7 13 16 -13 16
-12 7 6 -6 11 -9 28 -8 38 2 9 -2 17 -8 17 -6 0 -2 7 9 16 10 8 14 13 8 10 -7
-3 -14 5 -16 19 -4 21 -3 23 9 14 11 -10 12 -8 3 15 -13 34 -13 32 6 51 13 12
14 18 4 31 -11 12 -10 13 5 8 14 -6 16 -4 9 7 -14 24 -16 51 -2 43 9 -5 8 -2
-1 10 -12 15 -12 17 0 14 10 -2 14 8 13 39 -1 23 3 40 8 37 4 -3 8 0 8 6 0 6
4 8 10 5 7 -4 7 3 0 20 -8 20 -7 27 6 32 8 3 13 12 10 19 -3 8 3 20 14 26 11
7 20 16 20 21 0 4 -4 6 -9 3 -6 -4 -6 5 -2 21 5 16 13 27 18 26 6 -1 9 9 8 22
-2 16 3 25 18 29 16 4 19 8 10 17 -8 8 -6 16 8 30 11 11 17 24 14 29 -4 6 -1
10 5 10 6 0 8 5 4 13 -5 7 0 6 11 -3 10 -8 16 -10 12 -4 -3 6 1 22 11 35 9 13
17 28 18 34 0 5 2 16 2 23 1 6 8 12 16 12 8 0 18 5 22 12 5 7 3 8 -6 3 -9 -5
-11 -4 -6 3 4 7 15 12 24 12 15 0 15 2 2 10 -10 6 -11 10 -2 10 6 0 12 6 12
14 0 7 10 21 23 30 12 9 15 14 7 10 -9 -4 -12 -3 -7 2 9 9 13 10 42 13 8 0 15
9 15 20 0 21 23 45 33 34 4 -3 7 6 7 20 0 20 6 28 25 33 14 3 25 10 25 16 0 5
4 7 9 3 5 -3 12 -1 16 5 4 6 11 8 16 4 5 -3 8 0 7 8 -2 7 2 12 9 11 7 -2 10 4
7 12 -4 8 -1 15 5 15 6 0 11 6 11 14 0 16 27 29 42 19 7 -3 8 -1 4 5 -4 7 -1
12 8 12 8 0 18 5 22 12 5 7 3 8 -6 3 -9 -5 -11 -4 -6 4 4 7 13 10 19 8 7 -2
18 3 25 12 11 13 12 13 7 1 -5 -12 -4 -12 7 1 7 9 21 15 30 13 11 -1 15 3 11
14 -4 10 -2 13 5 8 7 -4 12 -1 12 7 0 10 11 13 40 11 21 -1 44 -5 50 -9z
m1553 2 c4 3 7 1 7 -5 0 -7 6 -12 13 -12 7 0 19 -9 27 -20 8 -11 20 -20 27
-20 12 0 17 -12 14 -32 0 -4 8 -5 18 -3 11 2 22 -3 25 -11 3 -8 13 -14 21 -14
9 0 13 -4 10 -10 -3 -5 3 -10 14 -10 12 0 21 -4 21 -10 0 -5 6 -9 13 -7 6 1
11 -4 10 -10 -2 -7 3 -13 11 -13 8 0 16 -7 20 -15 3 -8 13 -15 23 -15 15 0 16
-2 3 -10 -13 -9 -13 -10 0 -10 13 0 13 -1 0 -10 -12 -8 -11 -10 8 -10 12 0 22
-5 22 -12 0 -6 3 -9 6 -5 8 7 94 -77 94 -92 0 -6 6 -10 13 -9 6 2 11 -2 10 -9
-2 -7 4 -10 13 -6 14 5 15 3 4 -17 -8 -15 -8 -20 -1 -16 6 4 15 -4 21 -18 5
-14 12 -26 15 -26 4 0 3 5 -1 12 -5 7 -3 8 5 3 7 -4 11 -16 8 -26 -3 -11 -1
-17 4 -13 5 3 9 -2 9 -11 0 -10 5 -13 13 -9 8 5 8 2 -2 -9 -11 -14 -11 -17 0
-18 8 -1 18 -1 23 0 5 1 4 -5 -4 -13 -10 -13 -10 -16 1 -16 11 0 11 -2 -1 -10
-10 -6 -11 -10 -2 -10 6 0 12 -9 12 -21 0 -11 5 -17 10 -14 6 3 10 1 10 -5 0
-6 5 -8 10 -5 6 3 10 -1 10 -10 0 -9 4 -14 8 -11 4 2 9 -5 9 -16 1 -11 10 -27
20 -35 10 -8 12 -12 5 -8 -8 4 -11 -1 -8 -17 3 -13 5 -27 5 -32 1 -4 8 -6 16
-3 11 5 12 1 5 -18 -7 -19 -5 -27 8 -34 9 -6 13 -11 7 -11 -5 0 -3 -5 5 -10
12 -8 12 -10 1 -10 -11 0 -11 -3 0 -17 10 -11 10 -14 2 -9 -7 4 -13 2 -13 -3
0 -10 12 -15 31 -13 3 1 4 -17 2 -39 -2 -23 1 -39 8 -39 5 0 8 -4 4 -9 -3 -6
3 -14 12 -20 17 -10 17 -10 -1 -11 -15 0 -17 -3 -9 -11 8 -8 8 -20 3 -34 -10
-26 -4 -36 15 -29 9 4 12 -13 10 -70 -2 -55 0 -74 9 -69 6 4 5 -1 -3 -10 -9
-12 -10 -17 -2 -17 7 0 9 -4 6 -10 -3 -5 -1 -10 5 -10 7 0 10 -7 6 -15 -3 -8
0 -15 7 -15 7 0 4 -5 -6 -11 -9 -6 -15 -14 -12 -20 4 -5 -2 -6 -11 -2 -13 5
-15 3 -9 -7 5 -8 9 -43 8 -79 0 -37 5 -69 11 -73 7 -5 4 -8 -7 -8 -10 0 -15
-4 -12 -10 3 -5 2 -10 -3 -10 -5 0 -12 -9 -15 -20 -3 -11 -1 -18 3 -15 5 3 11
1 15 -5 3 -5 -2 -10 -11 -10 -14 0 -15 -3 -6 -12 14 -14 16 -32 2 -23 -5 3 -7
0 -4 -8 3 -8 -3 -17 -13 -21 -15 -6 -15 -8 -3 -17 12 -7 13 -11 2 -18 -8 -4
-14 -12 -15 -17 -1 -5 -5 -8 -9 -6 -5 1 -8 -2 -8 -8 0 -5 6 -10 13 -10 8 0 7
-4 -3 -10 -11 -7 -11 -10 -2 -10 7 0 1 -11 -14 -25 -15 -14 -21 -25 -14 -25 7
0 10 -7 6 -15 -3 -8 0 -15 7 -16 9 0 9 -2 -1 -6 -6 -2 -10 -8 -7 -13 3 -5 -4
-11 -15 -15 -11 -4 -18 -11 -15 -16 4 -5 2 -9 -4 -9 -6 0 -7 -7 -4 -17 5 -12
3 -14 -8 -8 -11 6 -12 5 -1 -6 10 -11 8 -17 -10 -32 -21 -17 -21 -18 -3 -13
19 6 19 5 3 -8 -10 -7 -18 -19 -18 -25 0 -7 -5 -9 -12 -5 -7 4 -8 3 -4 -4 7
-12 -17 -56 -25 -47 -3 2 -10 -5 -17 -15 -10 -16 -9 -18 5 -13 13 5 13 3 -3
-14 -10 -11 -24 -18 -30 -16 -6 2 -11 -3 -11 -12 0 -8 5 -15 11 -15 6 0 0 -7
-12 -16 -13 -9 -21 -22 -18 -30 5 -13 -12 -19 -37 -15 -5 1 -6 -3 -2 -9 3 -5
1 -10 -6 -10 -8 0 -8 -4 1 -15 11 -13 10 -14 -6 -9 -10 4 -16 4 -12 0 8 -9
-24 -45 -34 -39 -5 2 -8 -1 -8 -6 0 -14 -37 -51 -51 -51 -5 0 -8 -4 -4 -9 3
-6 -4 -15 -15 -21 -28 -15 -60 -47 -60 -61 0 -5 -4 -8 -9 -5 -5 3 -12 -1 -15
-10 -5 -14 -9 -14 -24 -3 -9 7 -14 9 -10 5 5 -5 -1 -16 -12 -23 -11 -8 -18
-19 -15 -24 4 -5 1 -9 -5 -9 -6 0 -8 -4 -5 -10 3 -6 -1 -7 -9 -4 -9 4 -18 -1
-22 -10 -3 -9 -10 -14 -14 -11 -5 3 -11 1 -15 -5 -4 -6 -11 -7 -17 -4 -7 4 -8
2 -4 -4 4 -7 2 -12 -4 -12 -6 0 -9 -4 -6 -9 3 -4 -5 -6 -18 -4 -13 3 -27 0
-30 -6 -4 -6 -12 -11 -17 -11 -6 0 -7 5 -4 11 4 6 1 10 -6 8 -29 -3 -69 1 -68
9 4 23 -2 52 -10 48 -5 -4 -8 2 -7 11 2 10 9 19 17 19 8 1 20 2 27 3 8 1 10 6
6 14 -5 8 -2 8 9 -2 13 -10 17 -10 17 -1 0 7 7 10 15 6 20 -7 19 3 -2 28 -10
12 -14 18 -9 14 5 -4 15 -3 23 3 10 9 13 8 13 -2 0 -8 6 -5 15 7 15 19 15 19
9 -1 -5 -19 -5 -19 6 -1 10 14 10 20 0 26 -7 4 2 10 24 14 20 4 36 13 36 20 0
8 7 17 16 20 8 3 12 11 9 16 -4 6 -3 10 2 9 21 -4 54 2 50 9 -3 4 5 16 16 27
11 11 16 14 12 6 -6 -10 -4 -12 4 -7 9 6 9 11 -1 24 -10 12 -10 14 0 8 7 -4
15 -1 18 8 3 9 10 13 15 10 5 -3 12 1 15 10 3 8 14 13 25 11 10 -2 21 0 24 6
4 5 -1 9 -9 9 -10 0 -13 6 -9 16 3 8 11 13 17 11 7 -3 13 5 14 16 0 12 9 28
19 35 10 7 17 18 15 23 -1 6 2 8 8 4 5 -3 13 1 16 9 3 9 11 13 16 10 6 -4 5 4
-2 16 -9 17 -9 21 0 15 6 -4 18 1 26 11 9 11 13 13 9 7 -4 -8 -1 -11 9 -7 9 3
15 9 14 12 0 4 1 12 2 17 2 6 3 19 4 30 1 11 6 19 13 18 7 -2 10 6 8 19 -3 12
1 28 8 37 10 12 9 13 -3 6 -8 -4 -5 2 8 14 26 26 28 36 6 27 -13 -5 -14 -4 -6
7 7 8 8 18 4 22 -4 5 -2 6 3 2 6 -3 17 3 24 15 9 15 10 18 0 13 -8 -5 -10 -4
-5 3 4 7 15 12 24 12 10 0 13 3 7 8 -15 11 -17 32 -3 32 9 0 8 4 -2 10 -13 9
-11 13 10 30 17 13 20 20 10 20 -13 0 -13 1 0 10 13 9 13 10 0 10 -13 0 -13 1
0 10 8 5 10 10 4 10 -6 0 -11 6 -11 14 0 9 7 12 16 8 9 -3 13 -2 9 3 -4 4 -3
16 3 26 7 14 6 19 -3 20 -11 0 -11 2 0 6 9 4 10 8 2 18 -8 9 -8 15 0 20 6 3 8
11 5 16 -6 8 8 13 30 10 6 -1 2 5 -8 13 -12 9 -15 16 -7 21 8 5 7 11 -2 23 -8
9 -8 13 -2 9 7 -4 14 0 17 8 4 10 1 12 -10 8 -13 -5 -13 -3 -4 15 13 25 14 35
3 28 -5 -3 -9 1 -9 9 0 8 4 12 9 9 4 -3 8 2 8 11 0 10 -5 13 -12 9 -8 -5 -8
-1 1 10 13 15 13 19 0 27 -12 7 -12 9 1 9 13 0 13 1 0 10 -8 5 -10 10 -5 10 6
0 11 13 11 30 1 16 -2 27 -7 24 -5 -3 -6 2 -3 10 3 9 11 16 18 17 6 0 2 4 -9
9 -11 5 -14 9 -6 9 11 1 11 4 0 18 -12 15 -12 16 4 10 22 -8 12 11 -16 32 -13
9 -16 16 -8 24 7 7 7 14 0 23 -7 8 -7 14 1 19 5 3 10 13 10 21 0 8 -3 13 -7
11 -5 -3 -14 1 -21 9 -10 11 -10 14 0 14 9 0 9 3 -2 10 -13 9 -13 10 0 10 12
0 12 2 1 9 -9 6 -10 11 -2 15 14 9 -8 46 -27 46 -10 0 -10 3 0 14 7 8 16 12
19 10 4 -2 9 3 12 11 4 10 1 12 -11 8 -9 -3 -14 -3 -10 2 8 8 -9 28 -33 37
-10 4 -16 19 -17 39 0 17 -7 36 -14 40 -7 5 -8 9 -3 9 6 0 1 7 -9 15 -14 11
-16 15 -5 15 10 1 9 3 -4 11 -9 6 -15 14 -12 20 4 5 1 9 -4 9 -6 0 -11 9 -11
19 0 11 -7 26 -15 34 -11 12 -12 17 -2 20 7 3 5 6 -5 6 -9 1 -19 10 -23 20 -3
11 -15 23 -26 26 -20 7 -20 7 -2 21 12 8 13 13 5 14 -7 0 -11 4 -8 9 3 4 -6 7
-20 5 -18 -2 -22 1 -16 9 11 13 -11 41 -22 30 -3 -4 -6 -1 -6 6 0 7 -3 10 -7
8 -5 -3 -13 1 -20 8 -10 11 -10 15 0 18 7 3 2 6 -10 6 -13 1 -23 5 -23 9 0 5
-7 17 -16 28 -8 10 -13 13 -9 7 3 -7 1 -13 -5 -13 -6 0 -13 7 -16 15 -4 8 -10
12 -15 9 -5 -3 -9 2 -9 11 0 9 -4 14 -9 10 -5 -3 -12 -1 -16 4 -3 6 3 8 15 6
13 -2 20 1 20 11 0 8 3 13 8 12 4 -2 9 2 10 7 2 6 8 15 12 20 6 7 1 11 -13 12
-12 0 -16 -1 -10 -4 10 -3 10 -8 -1 -19 -19 -19 -26 -18 -27 4 0 11 -2 12 -6
4 -4 -9 -10 -7 -23 8 -10 12 -21 17 -24 11 -4 -6 -17 -6 -37 1 -16 6 -28 13
-25 16 9 8 -45 33 -57 25 -6 -3 -7 -1 -3 5 3 6 -1 15 -10 20 -11 6 -15 16 -11
26 6 14 3 16 -13 11 -15 -5 -22 -1 -29 17 -5 13 -5 24 0 26 5 2 7 8 3 13 -3 5
0 9 5 9 6 0 11 -4 11 -8 0 -4 10 -9 22 -9 18 -2 19 0 8 7 -13 8 -13 11 -1 22
12 11 13 10 6 -2 -6 -12 -5 -13 6 -2 16 15 33 16 23 0 -4 -7 -3 -8 4 -4 9 5 9
13 0 29 -10 19 -9 20 4 10 8 -7 18 -10 21 -6z m-305 -415 c12 -7 20 -17 17
-22 -3 -5 4 -7 15 -5 11 2 20 -1 20 -6 0 -6 4 -7 10 -4 5 3 7 0 4 -8 -3 -8 6
-23 20 -35 14 -11 26 -25 26 -32 0 -7 8 -10 20 -7 11 3 18 2 15 -2 -2 -5 7
-14 20 -21 14 -7 25 -18 25 -24 0 -6 9 -17 20 -24 11 -7 20 -19 20 -27 0 -8 4
-15 10 -15 5 0 6 -8 3 -17 -5 -12 -2 -15 9 -11 11 5 14 0 11 -20 -2 -15 0 -21
3 -14 5 10 10 7 18 -10 7 -12 18 -22 24 -20 7 1 11 -1 10 -5 -2 -5 1 -9 6 -10
16 -3 44 -56 38 -72 -5 -13 -3 -14 9 -4 12 10 15 8 17 -13 1 -16 -2 -23 -9
-18 -8 4 -8 1 0 -14 6 -12 16 -24 21 -27 6 -3 10 -15 10 -26 0 -13 -4 -18 -12
-13 -7 4 -8 3 -4 -4 4 -7 13 -12 21 -12 17 0 25 -21 14 -41 -4 -8 -3 -22 3
-30 8 -11 9 -10 4 4 -3 11 -2 16 4 12 6 -3 9 -28 7 -56 -1 -27 1 -49 6 -49 4
0 5 -4 2 -10 -3 -5 1 -10 10 -10 13 0 14 -4 4 -21 -8 -17 -8 -20 1 -14 16 10
4 -62 -13 -85 -10 -13 -10 -13 3 -3 14 11 16 3 15 -68 -1 -45 -6 -84 -12 -87
-12 -8 -24 -64 -12 -57 4 3 4 -7 0 -22 -5 -16 -14 -27 -22 -25 -11 3 -11 1 -2
-9 10 -10 10 -16 0 -28 -9 -12 -9 -13 1 -7 6 4 12 3 12 -2 0 -6 -7 -12 -15
-16 -10 -3 -15 -19 -15 -43 0 -28 -3 -34 -10 -23 -8 12 -10 9 -10 -13 0 -15
-6 -30 -14 -33 -8 -3 -12 -13 -8 -26 4 -17 2 -20 -11 -15 -12 4 -14 2 -10 -10
5 -12 3 -14 -8 -8 -11 6 -11 5 -2 -5 9 -10 8 -16 -4 -29 -9 -9 -20 -17 -25
-17 -4 -1 -11 -2 -15 -3 -5 -1 -1 -6 7 -11 11 -7 12 -10 2 -10 -7 0 -20 -7
-29 -15 -8 -8 -18 -13 -23 -10 -4 3 -6 -4 -3 -15 3 -11 10 -17 17 -13 14 9
-11 -25 -45 -59 -18 -17 -31 -23 -38 -17 -6 5 -9 6 -7 3 7 -9 -17 -32 -29 -29
-5 1 -7 0 -2 -2 14 -9 7 -30 -18 -51 -14 -12 -29 -22 -34 -22 -5 0 -14 -7 -21
-15 -8 -10 -17 -12 -24 -6 -8 7 -12 4 -13 -9 -3 -33 -65 -81 -78 -60 -4 6 -11
10 -16 10 -6 0 -7 -5 -3 -12 4 -7 3 -8 -5 -4 -9 6 -9 11 0 22 9 11 9 14 -1 14
-7 0 -10 7 -6 17 4 10 4 14 0 10 -4 -4 -14 2 -21 13 -12 16 -12 24 -3 35 7 8
10 21 7 29 -4 10 2 13 22 11 24 -2 28 1 25 21 -1 13 2 22 7 18 5 -3 9 0 9 6 0
7 7 10 15 6 9 -3 15 0 15 10 0 8 5 12 10 9 6 -3 10 1 10 10 0 9 4 14 9 11 5
-3 12 1 15 10 3 8 10 12 16 9 6 -3 13 0 16 9 3 8 12 12 20 9 7 -3 17 2 20 11
3 9 10 14 14 11 11 -7 23 32 15 45 -3 5 -1 10 5 10 6 0 9 4 6 9 -3 5 1 11 9
15 8 3 15 10 15 16 0 6 -5 8 -12 4 -6 -4 -8 -3 -5 4 4 5 18 9 30 8 14 -2 24 2
24 10 0 7 -5 11 -11 8 -6 -3 -2 2 8 10 18 15 15 20 -9 17 -5 -1 -2 5 8 12 9 8
17 19 17 26 0 6 6 11 13 11 9 0 8 3 -2 9 -7 5 -10 14 -7 20 4 6 11 9 16 6 5
-3 12 0 16 6 4 8 3 9 -4 5 -20 -12 -13 8 14 39 15 17 23 23 18 15 -4 -8 -3
-12 1 -7 10 9 15 48 5 42 -9 -5 -6 62 3 71 4 4 1 14 -6 22 -10 13 -9 14 3 7
12 -6 13 -5 3 5 -13 14 -2 31 27 43 11 4 10 6 -4 6 -15 1 -16 4 -6 16 7 9 10
18 6 22 -3 3 -6 0 -6 -7 0 -7 -3 -11 -6 -8 -3 4 -1 15 5 27 8 14 8 22 1 26 -8
5 -7 12 2 23 11 12 11 16 -1 20 -11 4 -11 6 0 13 12 7 12 9 0 9 -11 0 -11 3 0
16 10 13 10 17 -2 25 -12 7 -12 9 1 9 13 0 13 1 0 10 -8 5 -10 10 -4 10 6 0
11 7 11 15 0 8 -4 12 -9 9 -4 -3 -8 2 -8 10 0 9 -6 16 -12 16 -9 0 -8 4 2 10
13 9 13 10 0 10 -9 0 -11 3 -5 8 17 12 14 41 -3 35 -10 -4 -13 -2 -8 5 4 7 2
12 -3 12 -6 0 -11 5 -11 11 0 5 6 7 13 3 9 -5 9 -4 0 6 -9 10 -10 17 -2 27 9
9 8 13 0 13 -7 0 -9 5 -6 10 3 6 -1 10 -9 10 -9 0 -16 5 -16 10 0 6 6 10 13
10 8 0 7 4 -3 10 -13 9 -13 10 0 10 12 0 12 2 2 9 -8 4 -13 11 -12 15 1 4 -1
12 -3 19 -3 6 -6 1 -7 -13 -1 -16 -4 -20 -7 -10 -4 8 -14 22 -24 31 -10 9 -16
19 -12 23 3 3 -1 6 -10 6 -9 0 -19 5 -23 12 -5 8 -2 9 11 4 15 -5 16 -4 5 9
-7 8 -17 12 -24 8 -7 -4 -7 -1 1 7 10 11 9 16 -5 27 -9 8 -11 11 -3 7 10 -5
12 -3 6 5 -4 7 -16 10 -27 8 -11 -3 -17 -3 -14 0 6 6 -18 33 -30 33 -4 0 -12
8 -19 17 -9 13 -10 22 -2 35 14 22 2 35 -17 19 -20 -17 -41 -4 -25 15 9 11 9
14 0 14 -7 0 -9 5 -6 10 4 6 -5 10 -19 10 -14 0 -26 6 -26 13 0 8 -4 7 -10 -3
-6 -10 -10 -11 -10 -2 0 6 -5 12 -11 12 -7 0 -18 8 -26 18 -9 10 -12 11 -7 2
5 -12 4 -13 -6 -3 -10 9 -10 16 -2 26 9 10 8 17 -1 26 -9 9 -9 14 2 20 8 5 10
14 6 21 -5 9 -4 11 3 6 7 -4 12 -1 12 8 0 16 26 35 44 32 6 -1 21 -8 34 -14z
m-997 -16 c5 3 9 0 9 -7 0 -6 8 -9 20 -6 11 3 20 1 20 -5 0 -5 5 -6 10 -3 6 3
10 -1 10 -9 0 -9 5 -16 11 -16 5 0 7 5 3 12 -4 7 -3 8 4 4 6 -4 9 -13 6 -21
-4 -8 -11 -12 -16 -9 -6 4 -9 1 -6 -7 5 -16 -18 -43 -31 -35 -5 3 -12 -1 -15
-10 -3 -8 -10 -12 -16 -9 -6 3 -10 -4 -10 -16 0 -12 -3 -20 -6 -16 -8 8 -33
-16 -27 -26 2 -4 1 -7 -4 -6 -4 1 -11 0 -15 -1 -5 -1 -14 -3 -20 -4 -7 0 -13
-8 -13 -17 0 -18 -54 -74 -62 -65 -9 9 -31 -19 -25 -33 4 -10 1 -13 -12 -8
-10 4 -15 3 -11 -3 3 -6 -1 -10 -10 -10 -9 0 -13 -4 -10 -10 3 -5 3 -15 -1
-21 -4 -8 -9 -7 -15 2 -7 11 -9 10 -9 -4 0 -10 -4 -15 -10 -12 -5 3 -10 4 -10
1 0 -2 -3 -13 -6 -23 -5 -15 -4 -16 5 -3 9 12 11 10 8 -10 -1 -14 -6 -31 -10
-37 -5 -7 -5 -19 -1 -25 5 -8 0 -7 -11 2 -17 14 -18 14 -6 -9 9 -17 10 -21 1
-16 -6 4 -20 -2 -31 -14 -13 -14 -16 -21 -7 -22 10 0 10 -2 -1 -6 -11 -5 -11
-7 0 -14 12 -8 11 -11 -1 -19 -13 -8 -13 -11 -1 -19 16 -11 5 -34 -12 -25 -7
4 -9 4 -5 -1 4 -4 3 -14 -3 -22 -9 -10 -8 -13 2 -13 11 0 11 -2 -1 -10 -12 -8
-12 -10 -1 -10 11 0 11 -3 1 -15 -10 -12 -10 -15 1 -16 10 0 10 -2 2 -5 -7 -3
-9 -12 -6 -21 4 -10 2 -14 -4 -10 -6 4 -16 0 -22 -7 -9 -11 -9 -16 0 -22 8 -5
9 -3 4 6 -5 9 -4 11 4 6 6 -4 8 -13 4 -19 -12 -19 -12 -57 0 -57 8 0 8 -3 -1
-12 -14 -14 -16 -32 -3 -23 6 3 8 -4 5 -17 -12 -53 -11 -69 1 -64 8 3 16 -2
19 -10 3 -8 2 -14 -3 -14 -5 0 -11 -8 -15 -17 -3 -10 -9 -24 -12 -30 -3 -8 1
-13 11 -13 9 0 13 -4 10 -10 -3 -5 -1 -10 6 -10 10 0 10 -3 1 -12 -17 -17 -15
-28 4 -28 8 0 12 -4 9 -10 -3 -5 0 -10 7 -10 10 0 10 -2 1 -8 -9 -6 -8 -12 7
-22 14 -10 16 -18 9 -32 -7 -14 -6 -18 6 -18 9 0 13 -4 10 -10 -3 -5 0 -10 7
-10 9 0 9 -3 -2 -10 -10 -6 -11 -10 -2 -10 6 0 12 -7 12 -15 0 -8 5 -15 11
-15 6 0 8 -7 5 -15 -3 -9 1 -18 10 -22 8 -3 13 -11 10 -18 -5 -13 29 -47 38
-38 3 4 6 1 6 -6 0 -7 15 -26 33 -43 17 -17 26 -28 20 -24 -7 4 -13 3 -13 -2
0 -14 26 -33 33 -25 4 3 7 1 7 -5 0 -7 3 -11 8 -10 4 2 22 -10 39 -26 24 -21
30 -32 22 -42 -6 -8 -6 -14 0 -18 5 -4 13 -1 17 5 4 8 9 7 15 -2 7 -11 9 -11
9 -1 0 7 5 10 10 7 6 -4 8 -11 5 -16 -4 -5 3 -9 14 -9 12 0 21 -7 21 -16 0 -9
5 -12 11 -8 7 4 10 1 7 -7 -3 -8 -12 -13 -19 -11 -8 1 -5 -4 5 -13 15 -11 16
-15 5 -16 -10 0 -10 -2 -1 -6 19 -8 14 -23 -9 -23 -11 0 -17 -5 -14 -10 4 -6
11 -7 17 -4 7 4 8 2 4 -4 -4 -7 -14 -12 -22 -12 -8 0 -13 -4 -10 -9 3 -5 -1
-11 -9 -15 -8 -3 -15 -2 -15 3 0 5 -9 11 -21 14 -12 3 -18 10 -15 16 4 5 1 13
-5 17 -8 4 -9 3 -5 -4 4 -7 2 -12 -3 -12 -6 0 -11 6 -11 13 0 8 -4 7 -10 -3
-8 -13 -10 -13 -10 1 0 9 -11 25 -25 35 -14 10 -25 23 -25 29 0 5 -11 15 -25
22 -14 6 -23 7 -19 2 3 -5 3 -9 0 -9 -3 0 -10 10 -17 21 -9 17 -8 20 3 14 7
-3 5 0 -4 8 -10 8 -16 16 -13 18 2 3 -5 6 -17 6 -28 3 -39 22 -26 47 10 20 10
20 -7 6 -17 -14 -18 -13 -11 4 7 19 6 19 -13 2 -14 -13 -21 -14 -27 -5 -4 8
-3 10 4 5 16 -10 15 7 0 23 -11 11 -10 13 4 8 12 -4 15 -2 12 8 -3 8 -12 11
-19 9 -7 -3 -16 0 -20 5 -3 6 -11 9 -16 5 -5 -3 -9 -2 -8 3 3 20 -2 34 -10 28
-6 -3 -8 3 -6 15 2 11 -1 19 -7 17 -6 -1 -13 4 -15 11 -3 6 0 12 7 12 6 0 9 4
5 10 -3 5 -12 7 -19 4 -9 -4 -13 2 -11 20 2 18 -2 26 -12 26 -10 0 -14 6 -10
20 3 13 0 20 -9 20 -8 0 -13 3 -13 8 5 29 -2 62 -12 56 -8 -5 -10 3 -7 25 3
18 0 31 -6 32 -6 0 -2 4 9 9 14 6 15 9 5 10 -8 0 -24 12 -34 27 -11 14 -14 23
-8 19 7 -4 12 -2 12 3 0 6 -6 11 -14 11 -10 0 -13 10 -11 35 2 22 -1 35 -8 35
-7 0 -4 5 5 10 18 11 16 53 -3 76 -7 8 -6 15 2 20 8 5 9 3 4 -6 -5 -8 -4 -11
3 -6 15 9 3 38 -12 29 -6 -3 -3 2 6 13 14 16 15 23 6 32 -7 7 -8 12 -2 12 5 0
2 5 -6 10 -9 6 -11 10 -3 10 7 0 10 7 6 17 -4 10 -2 14 5 9 6 -3 14 -1 18 5 4
7 3 9 -4 5 -6 -3 -14 -1 -18 5 -3 6 -1 15 6 19 6 4 12 11 13 16 1 5 6 8 10 6
5 -1 5 3 1 9 -17 27 -3 96 16 84 3 -2 6 5 6 15 0 10 -4 16 -8 14 -4 -3 -8 0
-8 5 0 10 14 15 33 12 4 -1 3 8 -4 20 -8 15 -8 19 0 15 6 -4 11 -2 11 4 0 6 5
8 13 4 8 -5 8 -2 -2 9 -9 11 -10 17 -2 17 6 0 11 7 11 16 0 8 5 12 10 9 6 -3
10 -1 10 4 0 6 -7 11 -15 11 -23 0 -19 9 23 47 20 19 30 31 22 27 -12 -6 -13
-5 -3 8 7 8 9 19 5 24 -4 4 1 2 11 -5 15 -12 17 -12 12 1 -4 9 1 18 10 22 9 3
13 10 10 16 -7 11 7 41 21 43 5 1 9 12 8 24 0 12 2 21 5 20 14 -3 51 25 51 39
0 10 6 14 14 11 11 -4 13 -1 9 10 -4 11 -2 14 5 9 7 -4 12 -2 12 4 0 6 4 8 10
5 5 -3 35 19 65 49 30 31 61 56 69 56 7 0 20 7 27 16 8 10 15 12 17 5 2 -6 8
-9 13 -5z m-846 -56 c-3 -5 -12 -10 -18 -10 -7 0 -6 4 3 10 19 12 23 12 15 0z
m1962 -6 c-3 -3 -12 -4 -19 -1 -8 3 -5 6 6 6 11 1 17 -2 13 -5z m-843 -2369
c-4 -8 -11 -15 -16 -15 -6 0 -5 6 2 15 7 8 14 15 16 15 2 0 1 -7 -2 -15z"/>
<path d="M6455 6450 c3 -5 8 -10 11 -10 2 0 4 5 4 10 0 6 -5 10 -11 10 -5 0
-7 -4 -4 -10z"/>
<path d="M6553 6355 c0 -8 4 -12 9 -9 4 3 8 9 8 15 0 5 -4 9 -8 9 -5 0 -9 -7
-9 -15z"/>
<path d="M7146 5732 c-2 -4 -1 -14 4 -22 8 -12 11 -13 22 -2 11 11 10 13 -2
10 -8 -2 -14 3 -12 10 2 14 -4 16 -12 4z"/>
<path d="M7144 5609 c1 -7 9 -13 18 -15 11 -1 15 3 11 13 -4 11 -8 12 -13 3
-6 -9 -9 -9 -13 -1 -4 8 -5 8 -3 0z"/>
<path d="M7275 3930 c-2 -3 5 -7 16 -7 10 -1 19 2 19 6 0 9 -29 10 -35 1z"/>
<path d="M7276 3879 c-10 -10 -22 -16 -26 -14 -4 2 -7 -2 -7 -9 0 -7 10 -19
21 -26 12 -7 18 -9 14 -5 -4 5 -2 15 5 23 9 13 9 14 0 8 -7 -4 -13 -3 -13 2 0
5 10 13 22 19 12 5 18 12 12 15 -5 3 -18 -3 -28 -13z"/>
<path d="M7072 3573 c3 -19 35 -26 45 -11 3 6 1 8 -4 5 -6 -4 -13 0 -17 8 -7
20 -28 19 -24 -2z"/>
<path d="M6756 3245 c-6 -17 5 -26 21 -17 8 5 7 11 -2 19 -10 10 -14 9 -19 -2z"/>
<path d="M6435 2950 c3 -5 8 -10 11 -10 2 0 4 5 4 10 0 6 -5 10 -11 10 -5 0
-7 -4 -4 -10z"/>
<path d="M6395 2870 c-16 -7 -17 -9 -3 -9 9 -1 20 4 23 9 7 11 7 11 -20 0z"/>
<path d="M4387 6482 c1 -8 3 -16 3 -18 0 -2 9 -4 20 -4 11 0 20 5 20 10 0 6
-9 10 -19 10 -11 0 -21 3 -24 8 -2 4 -2 1 0 -6z"/>
<path d="M4034 6203 c-9 -15 -8 -18 11 -18 14 0 22 7 23 20 1 14 -1 16 -7 6
-6 -9 -10 -10 -12 -2 -3 7 -9 4 -15 -6z"/>
<path d="M3479 5369 c-12 -7 -12 -9 1 -9 10 0 11 -3 4 -8 -14 -9 -14 -40 0
-38 19 3 52 25 38 26 -7 0 -11 3 -9 8 9 13 -19 31 -34 21z"/>
<path d="M3320 4809 c0 -5 5 -7 10 -4 6 3 10 8 10 11 0 2 -4 4 -10 4 -5 0 -10
-5 -10 -11z"/>
<path d="M3475 4061 c-3 -5 -1 -12 5 -16 5 -3 10 1 10 9 0 18 -6 21 -15 7z"/>
<path d="M3500 3970 c6 -11 13 -20 16 -20 2 0 0 9 -6 20 -6 11 -13 20 -16 20
-2 0 0 -9 6 -20z"/>
<path d="M3640 3674 c0 -2 9 -8 19 -14 14 -7 22 -7 27 2 4 7 3 8 -4 4 -7 -4
-12 -3 -12 2 0 5 -7 9 -15 9 -8 0 -15 -2 -15 -3z"/>
<path d="M4220 3051 c0 -7 -4 -9 -10 -6 -6 4 -7 -1 -3 -11 6 -15 7 -15 15 1 6
9 7 19 4 22 -3 4 -6 1 -6 -6z"/>
<path d="M4303 2978 c-1 -10 5 -18 13 -18 8 0 14 -4 14 -8 0 -5 13 -8 28 -8
26 0 27 2 18 22 -6 13 -16 19 -25 16 -8 -3 -12 -1 -9 4 4 5 -4 9 -16 9 -14 0
-23 -7 -23 -17z"/>
<path d="M4426 2934 c-3 -8 -2 -12 3 -9 6 3 14 -2 19 -11 6 -11 11 -13 16 -5
4 6 0 14 -8 17 -9 3 -13 10 -10 15 3 5 1 9 -4 9 -6 0 -13 -7 -16 -16z"/>
<path d="M4316 2911 c-3 -5 1 -11 9 -14 9 -4 12 -1 8 9 -6 16 -10 17 -17 5z"/>
<path d="M4560 5870 c-12 -7 -10 -9 7 -7 12 0 19 5 17 9 -6 10 -6 10 -24 -2z"/>
<path d="M4533 5825 c0 -6 6 -12 12 -12 6 0 12 6 12 12 0 6 -6 12 -12 12 -6 0
-12 -6 -12 -12z"/>
<path d="M4013 4165 c0 -8 4 -15 9 -15 4 0 8 4 8 9 0 6 -4 12 -8 15 -5 3 -9
-1 -9 -9z"/>
<path d="M4130 3968 c0 -5 5 -8 11 -8 5 0 8 -4 4 -9 -3 -5 0 -13 6 -17 8 -5 9
-3 4 6 -6 9 -4 12 6 8 9 -4 15 0 15 11 0 10 -9 16 -23 16 -13 0 -23 -3 -23 -7z"/>
<path d="M4330 3719 c0 -5 -6 -7 -12 -3 -7 4 -9 3 -5 -1 13 -15 36 -14 30 1
-6 17 -13 18 -13 3z"/>
<path d="M4563 3495 c0 -8 4 -12 9 -9 5 3 6 10 3 15 -9 13 -12 11 -12 -6z"/>
<path d="M4597 3493 c-11 -10 -8 -20 8 -26 8 -4 17 -2 20 4 4 5 1 8 -7 7 -7
-2 -12 3 -10 10 2 13 -1 15 -11 5z"/>
<path d="M6215 5880 c-3 -6 1 -7 9 -4 18 7 21 14 7 14 -6 0 -13 -4 -16 -10z"/>
<path d="M6761 4113 c-1 -17 16 -25 25 -12 4 7 3 9 -4 5 -5 -3 -13 0 -15 6 -4
9 -6 10 -6 1z"/>
<path d="M6366 3582 c-3 -5 1 -9 9 -9 8 0 12 4 9 9 -3 4 -7 8 -9 8 -2 0 -6 -4
-9 -8z"/>
<path d="M5896 5491 c-3 -5 1 -12 10 -15 22 -8 25 -4 9 11 -8 7 -16 9 -19 4z"/>
<path d="M5940 5460 c-8 -5 -12 -12 -9 -15 4 -3 12 1 19 10 14 17 11 19 -10 5z"/>
<path d="M6134 5198 c-4 -5 -3 -12 0 -15 3 -4 6 -1 6 6 0 7 4 10 9 6 5 -3 12
-2 15 3 3 5 -2 9 -10 9 -8 0 -17 -4 -20 -9z"/>
<path d="M6300 4850 c0 -4 7 -7 15 -6 23 3 26 12 5 13 -11 1 -20 -2 -20 -7z"/>
<path d="M6286 4411 c-10 -16 19 -32 35 -18 8 6 12 11 10 10 -2 -1 -12 2 -22
7 -10 6 -20 6 -23 1z"/>
<path d="M6250 4324 c0 -8 -4 -13 -9 -10 -5 4 -8 -1 -7 -11 3 -20 33 -26 40
-8 3 9 0 12 -9 9 -10 -4 -12 0 -8 15 3 12 3 21 -1 21 -3 0 -6 -7 -6 -16z"/>
<path d="M6220 4251 c-13 -26 -13 -27 10 -28 21 -2 27 11 10 22 -6 4 -8 11 -5
16 4 5 4 9 1 9 -3 0 -10 -9 -16 -19z"/>
<path d="M6107 4122 c4 -9 12 -23 19 -30 10 -10 12 -8 11 7 0 10 -9 24 -19 30
-14 9 -16 8 -11 -7z"/>
<path d="M5965 3950 c-4 -6 -11 -8 -16 -5 -5 4 -9 1 -9 -5 0 -6 -4 -8 -10 -5
-5 3 -10 1 -10 -5 0 -6 -6 -8 -12 -4 -7 3 1 -5 17 -19 28 -24 31 -24 49 -9 18
17 18 17 -3 20 -12 2 -19 8 -15 13 3 5 10 6 16 3 6 -4 8 -2 4 4 -3 5 0 13 6
15 9 4 10 6 1 6 -6 1 -15 -4 -18 -9z"/>
<path d="M4533 4957 c0 -12 1 -17 4 -10 2 7 12 9 21 6 18 -6 17 -5 -8 14 -13
10 -16 8 -17 -10z"/>
<path d="M4771 4056 c-9 -10 -9 -16 -1 -21 16 -10 31 7 21 23 -6 10 -10 10
-20 -2z"/>
<path d="M4797 4032 c-16 -17 -15 -20 10 -40 14 -12 31 -18 37 -15 8 5 8 3 0
-8 -11 -15 8 -41 37 -47 7 -2 16 -8 20 -13 10 -16 46 -19 46 -3 0 8 -3 12 -5
9 -3 -3 -18 8 -33 24 -15 16 -30 27 -33 23 -6 -5 -10 14 -7 32 1 5 -7 6 -18 3
-11 -3 -28 1 -38 9 -10 7 -13 14 -7 14 5 0 16 -6 24 -12 8 -7 7 -4 -3 8 -9 11
-14 24 -10 27 3 4 4 7 1 7 -3 0 -12 -8 -21 -18z"/>
<path d="M4707 8404 c2 -7 11 -15 19 -18 9 -3 12 -1 9 4 -3 6 -1 10 5 10 6 0
9 4 5 9 -8 14 -44 9 -38 -5z"/>
<path d="M6690 8349 c0 -5 5 -7 10 -4 6 3 10 8 10 11 0 2 -4 4 -10 4 -5 0 -10
-5 -10 -11z"/>
<path d="M7227 7871 c-3 -14 -11 -19 -26 -16 -13 2 -19 0 -15 -6 3 -6 8 -8 11
-5 3 3 14 1 24 -4 12 -7 20 -7 24 0 4 6 10 8 14 6 4 -3 13 4 20 16 7 11 8 17
3 14 -6 -3 -12 -3 -15 1 -2 5 -2 2 0 -6 3 -11 -1 -11 -15 2 -19 17 -20 17 -25
-2z"/>
<path d="M7290 7771 c0 -6 4 -13 10 -16 6 -3 7 1 4 9 -7 18 -14 21 -14 7z"/>
<path d="M8816 6175 c4 -8 11 -15 16 -15 6 0 5 6 -2 15 -7 8 -14 15 -16 15 -2
0 -1 -7 2 -15z"/>
<path d="M9694 5478 c-4 -6 -2 -14 4 -16 7 -2 10 -8 7 -13 -4 -5 1 -6 10 -3
11 5 13 10 5 19 -5 6 -7 15 -3 18 3 4 1 7 -5 7 -6 0 -14 -5 -18 -12z"/>
<path d="M261 4613 c0 -11 3 -13 6 -5 2 6 10 9 15 6 7 -4 8 -2 4 4 -11 18 -26
14 -25 -5z"/>
<path d="M234 4508 c-4 -6 -3 -8 4 -4 5 3 13 0 15 -6 3 -8 6 -6 6 5 1 19 -14
23 -25 5z"/>
<path d="M5280 3467 c0 -2 6 -10 14 -16 11 -9 16 -9 22 1 4 7 4 10 -1 6 -4 -4
-14 -3 -22 3 -7 6 -13 9 -13 6z"/>
<path d="M325 3131 c-6 -11 9 -23 19 -14 9 9 7 23 -3 23 -6 0 -12 -4 -16 -9z"/>
<path d="M1160 2290 c0 -5 7 -10 16 -10 8 0 12 5 9 10 -3 6 -10 10 -16 10 -5
0 -9 -4 -9 -10z"/>
<path d="M9610 2289 c0 -15 18 -19 23 -6 3 8 -1 14 -9 14 -8 0 -14 -4 -14 -8z"/>
<path d="M9675 2291 c-6 -11 9 -23 19 -14 9 9 7 23 -3 23 -6 0 -12 -4 -16 -9z"/>
<path d="M1097 2273 c-4 -6 0 -13 8 -17 8 -3 17 0 21 6 4 6 3 8 -4 4 -5 -3
-12 -1 -14 6 -3 8 -6 9 -11 1z"/>
</g>
</svg>
